<svg xmlns="http://www.w3.org/2000/svg" xmlns:xlink="http://www.w3.org/1999/xlink" width="225" height="110" viewBox="0 0 225 110">
  <defs>
    <filter id="Rectangle_3778" x="0" y="0" width="225" height="110" filterUnits="userSpaceOnUse">
      <feOffset dy="5" input="SourceAlpha"/>
      <feGaussianBlur stdDeviation="10" result="blur"/>
      <feFlood flood-opacity="0.161"/>
      <feComposite operator="in" in2="blur"/>
      <feComposite in="SourceGraphic"/>
    </filter>
  </defs>
  <g id="App_Store" data-name="App Store" transform="translate(30 25)">
    <g id="Group_16943" data-name="Group 16943" transform="translate(0)">
      <g transform="matrix(1, 0, 0, 1, -30, -25)" filter="url(#Rectangle_3778)">
        <rect id="Rectangle_3778-2" data-name="Rectangle 3778" width="165" height="50" rx="5" transform="translate(30 25)"/>
      </g>
    </g>
    <g id="Group_16946" data-name="Group 16946" transform="translate(8.931 8.741)">
      <g id="Group_16944" data-name="Group 16944" transform="translate(0 7.526)">
        <path id="Path_12788" data-name="Path 12788" d="M425.29,1338.325c-2.684,4.656-.978,11.723,1.99,16.008,1.481,2.142,2.981,4.065,5.035,4.065l.117,0a6.213,6.213,0,0,0,2.337-.623,6.4,6.4,0,0,1,2.768-.656,6.02,6.02,0,0,1,2.634.634,5.578,5.578,0,0,0,2.524.605c2.314-.043,3.734-2.118,4.987-3.949a17.493,17.493,0,0,0,2.185-4.476l.009-.028a.26.26,0,0,0-.138-.319l-.019-.008a6.632,6.632,0,0,1-4.019-6.073,6.826,6.826,0,0,1,3.226-5.707l.025-.016a.26.26,0,0,0,.074-.365,7.505,7.505,0,0,0-5.9-3.206,5.093,5.093,0,0,0-.515-.025,10.294,10.294,0,0,0-3.706.925,5.951,5.951,0,0,1-1.775.531,5.808,5.808,0,0,1-1.836-.537,8.9,8.9,0,0,0-3.237-.822h-.082A7.936,7.936,0,0,0,425.29,1338.325Z" transform="translate(-423.951 -1334.183)" fill="#fff"/>
      </g>
      <g id="Group_16945" data-name="Group 16945" transform="translate(12.627)">
        <path id="Path_12789" data-name="Path 12789" d="M614.662,1224.412a7.246,7.246,0,0,0-4.784,2.455,6.788,6.788,0,0,0-1.719,5.034.261.261,0,0,0,.238.225c.111.008.224.013.336.013a6.131,6.131,0,0,0,4.516-2.316,7.158,7.158,0,0,0,1.682-5.179A.262.262,0,0,0,614.662,1224.412Z" transform="translate(-608.117 -1224.412)" fill="#fff"/>
      </g>
    </g>
    <g id="Group_16949" data-name="Group 16949" transform="translate(44.263 8.139)">
      <g id="Group_16947" data-name="Group 16947" transform="translate(2.299)">
        <path id="Path_12790" data-name="Path 12790" d="M978.866,1222.466h3.111a4.551,4.551,0,0,1,2.173.505,3.693,3.693,0,0,1,1.477,1.4,4.157,4.157,0,0,1,0,4.054,3.694,3.694,0,0,1-1.477,1.4,4.551,4.551,0,0,1-2.173.505h-3.111Zm3.066,7.345a4.1,4.1,0,0,0,1.92-.433,3.092,3.092,0,0,0,1.28-1.207,3.73,3.73,0,0,0,0-3.549,3.1,3.1,0,0,0-1.28-1.207,4.1,4.1,0,0,0-1.92-.432h-2.493v6.828Z" transform="translate(-978.866 -1221.994)" fill="#fff" stroke="#fff" stroke-width="0.4"/>
        <path id="Path_12791" data-name="Path 12791" d="M1103.632,1256.535a2.746,2.746,0,0,1-1.05-1.061,3.267,3.267,0,0,1,0-3.066,2.749,2.749,0,0,1,1.05-1.061,3.133,3.133,0,0,1,3,0,2.751,2.751,0,0,1,1.05,1.061,3.268,3.268,0,0,1,0,3.066,2.748,2.748,0,0,1-1.05,1.061,3.133,3.133,0,0,1-3,0Zm2.707-.438a2.258,2.258,0,0,0,.842-.876,2.809,2.809,0,0,0,0-2.561,2.261,2.261,0,0,0-.842-.876,2.474,2.474,0,0,0-2.414,0,2.258,2.258,0,0,0-.842.876,2.808,2.808,0,0,0,0,2.561,2.254,2.254,0,0,0,.842.876,2.475,2.475,0,0,0,2.414,0Z" transform="translate(-1093.744 -1248.539)" fill="#fff" stroke="#fff" stroke-width="0.4"/>
        <path id="Path_12792" data-name="Path 12792" d="M1204.361,1251.62l-2.224,5.862h-.528l-1.977-5.087-1.988,5.087h-.517l-2.224-5.862h.539l1.954,5.233,2-5.233h.483l1.988,5.222,1.977-5.222Z" transform="translate(-1180.093 -1249.15)" fill="#fff" stroke="#fff" stroke-width="0.4"/>
        <path id="Path_12793" data-name="Path 12793" d="M1356.422,1251.605a2.493,2.493,0,0,1,.64,1.842v3.425h-.562v-3.38a2.081,2.081,0,0,0-.5-1.5,1.855,1.855,0,0,0-1.4-.517,2.155,2.155,0,0,0-1.628.618,2.294,2.294,0,0,0-.6,1.662v3.122h-.562v-5.862h.539v1.269a2.23,2.23,0,0,1,.9-.966,2.786,2.786,0,0,1,1.421-.348A2.353,2.353,0,0,1,1356.422,1251.605Z" transform="translate(-1326.247 -1248.539)" fill="#fff" stroke="#fff" stroke-width="0.4"/>
        <path id="Path_12794" data-name="Path 12794" d="M1462.049,1215.586h.562v8.333h-.562Z" transform="translate(-1428.92 -1215.586)" fill="#fff" stroke="#fff" stroke-width="0.4"/>
        <path id="Path_12795" data-name="Path 12795" d="M1496.892,1256.535a2.746,2.746,0,0,1-1.05-1.061,3.268,3.268,0,0,1,0-3.066,2.749,2.749,0,0,1,1.05-1.061,3.133,3.133,0,0,1,3,0,2.75,2.75,0,0,1,1.05,1.061,3.268,3.268,0,0,1,0,3.066,2.747,2.747,0,0,1-1.05,1.061,3.133,3.133,0,0,1-3,0Zm2.707-.438a2.258,2.258,0,0,0,.842-.876,2.81,2.81,0,0,0,0-2.561,2.261,2.261,0,0,0-.842-.876,2.474,2.474,0,0,0-2.414,0,2.258,2.258,0,0,0-.842.876,2.808,2.808,0,0,0,0,2.561,2.255,2.255,0,0,0,.842.876,2.475,2.475,0,0,0,2.414,0Z" transform="translate(-1460.041 -1248.539)" fill="#fff" stroke="#fff" stroke-width="0.4"/>
        <path id="Path_12796" data-name="Path 12796" d="M1602.5,1251.521a2.152,2.152,0,0,1,.584,1.634v3.717h-.539v-1.044a1.951,1.951,0,0,1-.82.8,2.718,2.718,0,0,1-1.291.286,2.379,2.379,0,0,1-1.544-.46,1.592,1.592,0,0,1-.045-2.4,2.509,2.509,0,0,1,1.668-.455h2.01v-.472a1.651,1.651,0,0,0-.444-1.246,1.8,1.8,0,0,0-1.3-.427,3.128,3.128,0,0,0-1.117.2,2.8,2.8,0,0,0-.9.539l-.281-.4a3.121,3.121,0,0,1,1.056-.612,3.835,3.835,0,0,1,1.292-.219A2.334,2.334,0,0,1,1602.5,1251.521Zm-.747,4.6a2.05,2.05,0,0,0,.769-.977v-1.1h-2a1.991,1.991,0,0,0-1.252.314,1.054,1.054,0,0,0-.387.865,1.082,1.082,0,0,0,.427.9,1.92,1.92,0,0,0,1.2.331A2.206,2.206,0,0,0,1601.753,1256.12Z" transform="translate(-1555.85 -1248.539)" fill="#fff" stroke="#fff" stroke-width="0.4"/>
        <path id="Path_12797" data-name="Path 12797" d="M1698.186,1215.586v8.333h-.55v-1.381a2.518,2.518,0,0,1-.977,1.056,2.756,2.756,0,0,1-1.426.371,2.914,2.914,0,0,1-1.482-.382,2.732,2.732,0,0,1-1.039-1.056,3.1,3.1,0,0,1-.376-1.539,3.133,3.133,0,0,1,.376-1.544,2.683,2.683,0,0,1,1.039-1.056,2.95,2.95,0,0,1,1.482-.376,2.7,2.7,0,0,1,1.409.371,2.639,2.639,0,0,1,.983,1.033v-3.829Zm-1.713,7.558a2.259,2.259,0,0,0,.842-.876,2.809,2.809,0,0,0,0-2.561,2.262,2.262,0,0,0-.842-.876,2.476,2.476,0,0,0-2.415,0,2.259,2.259,0,0,0-.842.876,2.808,2.808,0,0,0,0,2.561,2.256,2.256,0,0,0,.842.876,2.475,2.475,0,0,0,2.415,0Z" transform="translate(-1643.417 -1215.586)" fill="#fff" stroke="#fff" stroke-width="0.4"/>
        <path id="Path_12798" data-name="Path 12798" d="M1846.418,1256.535a2.745,2.745,0,0,1-1.05-1.061,3.268,3.268,0,0,1,0-3.066,2.748,2.748,0,0,1,1.05-1.061,3.133,3.133,0,0,1,3,0,2.752,2.752,0,0,1,1.05,1.061,3.269,3.269,0,0,1,0,3.066,2.749,2.749,0,0,1-1.05,1.061,3.133,3.133,0,0,1-3,0Zm2.707-.438a2.258,2.258,0,0,0,.842-.876,2.809,2.809,0,0,0,0-2.561,2.261,2.261,0,0,0-.842-.876,2.474,2.474,0,0,0-2.414,0,2.257,2.257,0,0,0-.842.876,2.807,2.807,0,0,0,0,2.561,2.253,2.253,0,0,0,.842.876,2.475,2.475,0,0,0,2.414,0Z" transform="translate(-1785.602 -1248.539)" fill="#fff" stroke="#fff" stroke-width="0.4"/>
        <path id="Path_12799" data-name="Path 12799" d="M1960.478,1251.605a2.491,2.491,0,0,1,.64,1.842v3.425h-.561v-3.38a2.082,2.082,0,0,0-.5-1.5,1.855,1.855,0,0,0-1.4-.517,2.156,2.156,0,0,0-1.628.618,2.3,2.3,0,0,0-.6,1.662v3.122h-.561v-5.862h.539v1.269a2.231,2.231,0,0,1,.9-.966,2.786,2.786,0,0,1,1.421-.348A2.352,2.352,0,0,1,1960.478,1251.605Z" transform="translate(-1888.887 -1248.539)" fill="#fff" stroke="#fff" stroke-width="0.4"/>
        <path id="Path_12800" data-name="Path 12800" d="M2097.985,1239.72a1.409,1.409,0,0,1-.533.309,2.1,2.1,0,0,1-.668.107,1.581,1.581,0,0,1-1.179-.421,1.6,1.6,0,0,1-.416-1.173v-3.83h-1.078v-.483h1.078v-1.28h.562v1.28h1.864v.483h-1.864v3.773a1.237,1.237,0,0,0,.275.87,1.054,1.054,0,0,0,.814.3,1.3,1.3,0,0,0,.909-.326Z" transform="translate(-2017.645 -1231.758)" fill="#fff" stroke="#fff" stroke-width="0.4"/>
        <path id="Path_12801" data-name="Path 12801" d="M2177.99,1218.652a2.493,2.493,0,0,1,.64,1.842v3.425h-.562v-3.38a2.08,2.08,0,0,0-.5-1.5,1.854,1.854,0,0,0-1.4-.517,2.155,2.155,0,0,0-1.628.618,2.293,2.293,0,0,0-.6,1.662v3.122h-.562v-8.333h.562v3.695a2.153,2.153,0,0,1,.9-.938,2.842,2.842,0,0,1,1.4-.331A2.353,2.353,0,0,1,2177.99,1218.652Z" transform="translate(-2091.486 -1215.586)" fill="#fff" stroke="#fff" stroke-width="0.4"/>
        <path id="Path_12802" data-name="Path 12802" d="M2280.033,1254.076h-5.042a2.447,2.447,0,0,0,.348,1.218,2.228,2.228,0,0,0,.881.826,2.654,2.654,0,0,0,1.252.292,2.683,2.683,0,0,0,1.061-.208,2.071,2.071,0,0,0,.814-.612l.326.371a2.5,2.5,0,0,1-.96.708,3.344,3.344,0,0,1-2.813-.135,2.768,2.768,0,0,1-1.073-1.055,3.031,3.031,0,0,1-.387-1.539,3.189,3.189,0,0,1,.365-1.533,2.694,2.694,0,0,1,1.005-1.061,2.9,2.9,0,0,1,2.869-.006,2.674,2.674,0,0,1,1,1.05,3.156,3.156,0,0,1,.365,1.527Zm-3.9-2.342a2.1,2.1,0,0,0-.792.775,2.519,2.519,0,0,0-.343,1.129h4.492a2.349,2.349,0,0,0-.337-1.123,2.181,2.181,0,0,0-1.909-1.056A2.247,2.247,0,0,0,2276.137,1251.734Z" transform="translate(-2185.612 -1248.539)" fill="#fff" stroke="#fff" stroke-width="0.4"/>
      </g>
      <g id="Group_16948" data-name="Group 16948" transform="translate(0 15.194)">
        <path id="Path_12803" data-name="Path 12803" d="M955.954,1450.322h-6.717l-1.324,3.109h-2.572L951.386,1440h2.456l6.064,13.434H957.3Zm-.825-1.958-2.533-5.873-2.514,5.873Z" transform="translate(-945.341 -1439.805)" fill="#fff"/>
        <path id="Path_12804" data-name="Path 12804" d="M1187.7,1485.434a4.708,4.708,0,0,1,1.852,1.842,5.961,5.961,0,0,1,0,5.5,4.689,4.689,0,0,1-1.852,1.852,5.439,5.439,0,0,1-2.677.653,4.137,4.137,0,0,1-3.282-1.382v4.971h-2.4V1484.9h2.284v1.344a3.71,3.71,0,0,1,1.468-1.094,4.96,4.96,0,0,1,1.929-.365A5.442,5.442,0,0,1,1187.7,1485.434Zm-.768,6.909a3.584,3.584,0,0,0,0-4.645,2.9,2.9,0,0,0-2.178-.883,3.086,3.086,0,0,0-1.554.393,2.845,2.845,0,0,0-1.094,1.123,3.74,3.74,0,0,0,0,3.378,2.841,2.841,0,0,0,1.094,1.123,3.085,3.085,0,0,0,1.554.393A2.9,2.9,0,0,0,1186.93,1492.343Z" transform="translate(-1163.296 -1481.518)" fill="#fff"/>
        <path id="Path_12805" data-name="Path 12805" d="M1379.711,1485.434a4.708,4.708,0,0,1,1.852,1.842,5.963,5.963,0,0,1,0,5.5,4.689,4.689,0,0,1-1.852,1.852,5.439,5.439,0,0,1-2.677.653,4.136,4.136,0,0,1-3.282-1.382v4.971h-2.4V1484.9h2.284v1.344a3.71,3.71,0,0,1,1.468-1.094,4.961,4.961,0,0,1,1.929-.365A5.442,5.442,0,0,1,1379.711,1485.434Zm-.768,6.909a3.584,3.584,0,0,0,0-4.645,2.9,2.9,0,0,0-2.178-.883,3.086,3.086,0,0,0-1.555.393,2.843,2.843,0,0,0-1.094,1.123,3.741,3.741,0,0,0,0,3.378,2.839,2.839,0,0,0,1.094,1.123,3.085,3.085,0,0,0,1.555.393A2.9,2.9,0,0,0,1378.943,1492.343Z" transform="translate(-1342.144 -1481.518)" fill="#fff"/>
        <path id="Path_12806" data-name="Path 12806" d="M1629.753,1450.573a6.267,6.267,0,0,1-2.293-1.171l.864-1.938a6.793,6.793,0,0,0,2.025,1.065,7.355,7.355,0,0,0,2.409.413,4.161,4.161,0,0,0,2.236-.48,1.453,1.453,0,0,0,.739-1.266,1.227,1.227,0,0,0-.413-.95,2.9,2.9,0,0,0-1.046-.585q-.633-.211-1.727-.48a20.055,20.055,0,0,1-2.485-.729,4.088,4.088,0,0,1-1.631-1.142,3.076,3.076,0,0,1-.681-2.1,3.585,3.585,0,0,1,.6-2.025,4.092,4.092,0,0,1,1.823-1.449,7.387,7.387,0,0,1,2.984-.537,9.647,9.647,0,0,1,2.418.307,6.69,6.69,0,0,1,2.053.883l-.787,1.938a7.781,7.781,0,0,0-1.842-.787,6.9,6.9,0,0,0-1.862-.269,3.888,3.888,0,0,0-2.2.5,1.54,1.54,0,0,0-.72,1.324,1.2,1.2,0,0,0,.412.94,2.979,2.979,0,0,0,1.046.576q.634.211,1.727.48a18.19,18.19,0,0,1,2.457.72,4.209,4.209,0,0,1,1.641,1.142,3.01,3.01,0,0,1,.681,2.073,3.538,3.538,0,0,1-.6,2.015,4.111,4.111,0,0,1-1.833,1.439,7.459,7.459,0,0,1-2.994.537A10.255,10.255,0,0,1,1629.753,1450.573Z" transform="translate(-1580.692 -1437.197)" fill="#fff"/>
        <path id="Path_12807" data-name="Path 12807" d="M1804.325,1465.388a2.824,2.824,0,0,1-1.027.518,4.622,4.622,0,0,1-1.276.173,3.621,3.621,0,0,1-2.61-.883,3.4,3.4,0,0,1-.921-2.572v-4.932H1796.8v-1.919h1.689v-2.341h2.4v2.341h2.744v1.919h-2.744v4.875a1.621,1.621,0,0,0,.365,1.142,1.368,1.368,0,0,0,1.056.394,2.106,2.106,0,0,0,1.343-.422Z" transform="translate(-1738.423 -1452.319)" fill="#fff"/>
        <path id="Path_12808" data-name="Path 12808" d="M1920.651,1494.607a4.894,4.894,0,0,1-1.948-1.871,5.6,5.6,0,0,1,0-5.422,4.919,4.919,0,0,1,1.948-1.861,6.22,6.22,0,0,1,5.623,0,4.922,4.922,0,0,1,1.948,1.861,5.6,5.6,0,0,1,0,5.422,4.9,4.9,0,0,1-1.948,1.871,6.22,6.22,0,0,1-5.623,0Zm4.99-2.264a3.554,3.554,0,0,0,0-4.645,2.932,2.932,0,0,0-2.188-.883,2.9,2.9,0,0,0-2.178.883,3.584,3.584,0,0,0,0,4.645,2.9,2.9,0,0,0,2.178.883A2.931,2.931,0,0,0,1925.641,1492.343Z" transform="translate(-1851.314 -1481.518)" fill="#fff"/>
        <path id="Path_12809" data-name="Path 12809" d="M2116.784,1484.781v2.284a3.042,3.042,0,0,0-.557-.058,2.9,2.9,0,0,0-2.187.816,3.252,3.252,0,0,0-.787,2.351v4.971h-2.4V1484.9h2.284v1.5A4,4,0,0,1,2116.784,1484.781Z" transform="translate(-2030.943 -1481.518)" fill="#fff"/>
        <path id="Path_12810" data-name="Path 12810" d="M2223.742,1490.788H2215.7a2.787,2.787,0,0,0,1.1,1.794,3.618,3.618,0,0,0,2.217.662,3.734,3.734,0,0,0,2.783-1.113l1.286,1.478a4.331,4.331,0,0,1-1.747,1.247,6.92,6.92,0,0,1-5.354-.25,4.834,4.834,0,0,1-1.986-1.871,5.28,5.28,0,0,1-.7-2.716,5.361,5.361,0,0,1,.681-2.7,4.834,4.834,0,0,1,1.89-1.871,5.515,5.515,0,0,1,2.725-.672,5.376,5.376,0,0,1,2.677.662,4.7,4.7,0,0,1,1.843,1.862,5.648,5.648,0,0,1,.662,2.773Q2223.78,1490.327,2223.742,1490.788Zm-7.091-3.406a2.866,2.866,0,0,0-.969,1.814h5.815a2.828,2.828,0,0,0-.94-1.8,2.86,2.86,0,0,0-1.957-.691A2.894,2.894,0,0,0,2216.651,1487.381Z" transform="translate(-2126.367 -1481.518)" fill="#fff"/>
      </g>
    </g>
  </g>
</svg>
