<svg xmlns="http://www.w3.org/2000/svg" xmlns:xlink="http://www.w3.org/1999/xlink" width="225" height="110" viewBox="0 0 225 110">
  <defs>
    <filter id="Rectangle_3779" x="0" y="0" width="225" height="110" filterUnits="userSpaceOnUse">
      <feOffset dy="5" input="SourceAlpha"/>
      <feGaussianBlur stdDeviation="10" result="blur"/>
      <feFlood flood-opacity="0.161"/>
      <feComposite operator="in" in2="blur"/>
      <feComposite in="SourceGraphic"/>
    </filter>
  </defs>
  <g id="Google_Play" data-name="Google Play" transform="translate(30 25)">
    <g id="Group_16989" data-name="Group 16989">
      <g id="Group_16952" data-name="Group 16952">
        <g id="Group_16951" data-name="Group 16951">
          <g transform="matrix(1, 0, 0, 1, -30, -25)" filter="url(#Rectangle_3779)">
            <rect id="Rectangle_3779-2" data-name="Rectangle 3779" width="165" height="50" rx="5" transform="translate(30 25)"/>
          </g>
        </g>
      </g>
      <g id="Group_16979" data-name="Group 16979" transform="translate(42.999 8.026)">
        <g id="Group_16967" data-name="Group 16967" transform="translate(0.964)">
          <path id="Path_12811" data-name="Path 12811" d="M960.114,304.851h-4.593l-1.007,2.229h-.622l3.643-7.919h.577l3.643,7.919h-.622Zm-.215-.486-2.082-4.57-2.07,4.57Z" transform="translate(-953.892 -298.686)" fill="#fff" stroke="#fff" stroke-width="0.4"/>
          <path id="Path_12812" data-name="Path 12812" d="M1070.685,328.316l-2.67,5.905h-.577l-2.659-5.905h.6l2.353,5.283,2.376-5.283Z" transform="translate(-1057.121 -325.827)" fill="#fff" stroke="#fff" stroke-width="0.4"/>
          <path id="Path_12813" data-name="Path 12813" d="M1162.023,328.221a2.168,2.168,0,0,1,.588,1.646v3.745h-.543v-1.052a1.964,1.964,0,0,1-.826.809,2.739,2.739,0,0,1-1.3.288,2.4,2.4,0,0,1-1.555-.464,1.6,1.6,0,0,1-.045-2.415,2.527,2.527,0,0,1,1.68-.458h2.025v-.475a1.663,1.663,0,0,0-.447-1.256,1.814,1.814,0,0,0-1.307-.43,3.147,3.147,0,0,0-1.126.2,2.821,2.821,0,0,0-.911.543l-.283-.407a3.141,3.141,0,0,1,1.063-.616,3.863,3.863,0,0,1,1.3-.221A2.351,2.351,0,0,1,1162.023,328.221Zm-.752,4.633a2.065,2.065,0,0,0,.775-.984v-1.109h-2.014a2,2,0,0,0-1.261.317,1.061,1.061,0,0,0-.39.871,1.09,1.09,0,0,0,.43.911,1.933,1.933,0,0,0,1.21.334A2.221,2.221,0,0,0,1161.271,332.854Z" transform="translate(-1143.73 -325.218)" fill="#fff" stroke="#fff" stroke-width="0.4"/>
          <path id="Path_12814" data-name="Path 12814" d="M1258.519,295.033a.428.428,0,0,1-.136-.322.464.464,0,0,1,.464-.464.458.458,0,0,1,.328.13.429.429,0,0,1,.136.322.463.463,0,0,1-.464.464A.456.456,0,0,1,1258.519,295.033Zm.045,1.567h.566v5.905h-.566Z" transform="translate(-1237.352 -294.111)" fill="#fff" stroke="#fff" stroke-width="0.4"/>
          <path id="Path_12815" data-name="Path 12815" d="M1303.751,292.281h.566v8.394h-.566Z" transform="translate(-1279.587 -292.281)" fill="#fff" stroke="#fff" stroke-width="0.4"/>
          <path id="Path_12816" data-name="Path 12816" d="M1343.008,328.221a2.168,2.168,0,0,1,.588,1.646v3.745h-.543v-1.052a1.965,1.965,0,0,1-.826.809,2.74,2.74,0,0,1-1.3.288,2.4,2.4,0,0,1-1.555-.464,1.6,1.6,0,0,1-.045-2.415,2.526,2.526,0,0,1,1.68-.458h2.025v-.475a1.664,1.664,0,0,0-.447-1.256,1.815,1.815,0,0,0-1.307-.43,3.149,3.149,0,0,0-1.126.2,2.823,2.823,0,0,0-.911.543l-.283-.407a3.143,3.143,0,0,1,1.063-.616,3.862,3.862,0,0,1,1.3-.221A2.351,2.351,0,0,1,1343.008,328.221Zm-.752,4.633a2.065,2.065,0,0,0,.775-.984v-1.109h-2.014a2,2,0,0,0-1.261.317,1.061,1.061,0,0,0-.39.871,1.09,1.09,0,0,0,.43.911,1.933,1.933,0,0,0,1.21.334A2.22,2.22,0,0,0,1342.256,332.854Z" transform="translate(-1312.215 -325.218)" fill="#fff" stroke="#fff" stroke-width="0.4"/>
          <path id="Path_12817" data-name="Path 12817" d="M1446.445,295.1a2.706,2.706,0,0,1,1.046,1.063,3.16,3.16,0,0,1,.379,1.556,3.127,3.127,0,0,1-.379,1.55,2.754,2.754,0,0,1-1.046,1.063,2.937,2.937,0,0,1-1.493.385,2.751,2.751,0,0,1-1.431-.379,2.576,2.576,0,0,1-.99-1.058v1.391h-.543v-8.394h.566v3.835a2.547,2.547,0,0,1,.984-1.024,2.766,2.766,0,0,1,1.414-.368A2.972,2.972,0,0,1,1446.445,295.1Zm-.306,4.791a2.262,2.262,0,0,0,.854-.882,2.829,2.829,0,0,0,0-2.579,2.264,2.264,0,0,0-.854-.882,2.38,2.38,0,0,0-1.222-.317,2.35,2.35,0,0,0-1.216.317,2.274,2.274,0,0,0-.848.882,2.828,2.828,0,0,0,0,2.579,2.272,2.272,0,0,0,.848.882,2.35,2.35,0,0,0,1.216.317A2.379,2.379,0,0,0,1446.14,299.895Z" transform="translate(-1408.276 -292.281)" fill="#fff" stroke="#fff" stroke-width="0.4"/>
          <path id="Path_12818" data-name="Path 12818" d="M1552.547,292.281h.566v8.394h-.566Z" transform="translate(-1511.199 -292.281)" fill="#fff" stroke="#fff" stroke-width="0.4"/>
          <path id="Path_12819" data-name="Path 12819" d="M1591.591,330.795h-5.08a2.47,2.47,0,0,0,.351,1.227,2.244,2.244,0,0,0,.888.831,2.669,2.669,0,0,0,1.261.294,2.7,2.7,0,0,0,1.069-.209,2.084,2.084,0,0,0,.82-.617l.328.373a2.519,2.519,0,0,1-.967.713,3.368,3.368,0,0,1-2.834-.136,2.788,2.788,0,0,1-1.08-1.063,3.052,3.052,0,0,1-.39-1.55,3.212,3.212,0,0,1,.368-1.544,2.713,2.713,0,0,1,1.013-1.069,2.926,2.926,0,0,1,2.89-.006,2.694,2.694,0,0,1,1.007,1.058,3.178,3.178,0,0,1,.368,1.539Zm-3.926-2.359a2.112,2.112,0,0,0-.8.781,2.539,2.539,0,0,0-.345,1.137h4.525a2.371,2.371,0,0,0-.339-1.131,2.2,2.2,0,0,0-1.923-1.063A2.263,2.263,0,0,0,1587.665,328.436Z" transform="translate(-1542.301 -325.218)" fill="#fff" stroke="#fff" stroke-width="0.4"/>
          <path id="Path_12820" data-name="Path 12820" d="M1727.274,333.272a2.767,2.767,0,0,1-1.058-1.069,3.291,3.291,0,0,1,0-3.088,2.769,2.769,0,0,1,1.058-1.069,3.157,3.157,0,0,1,3.021,0,2.773,2.773,0,0,1,1.058,1.069,3.292,3.292,0,0,1,0,3.088,2.771,2.771,0,0,1-1.058,1.069,3.157,3.157,0,0,1-3.021,0Zm2.726-.441a2.273,2.273,0,0,0,.849-.882,2.828,2.828,0,0,0,0-2.579,2.276,2.276,0,0,0-.849-.882,2.493,2.493,0,0,0-2.432,0,2.275,2.275,0,0,0-.848.882,2.828,2.828,0,0,0,0,2.579,2.272,2.272,0,0,0,.848.882,2.493,2.493,0,0,0,2.432,0Z" transform="translate(-1672.515 -325.218)" fill="#fff" stroke="#fff" stroke-width="0.4"/>
          <path id="Path_12821" data-name="Path 12821" d="M1841.358,328.306a2.511,2.511,0,0,1,.645,1.855v3.45h-.566v-3.405a2.1,2.1,0,0,0-.5-1.516,1.869,1.869,0,0,0-1.408-.52,2.171,2.171,0,0,0-1.641.622,2.311,2.311,0,0,0-.6,1.674v3.145h-.566v-5.905h.543v1.278a2.247,2.247,0,0,1,.911-.973,2.807,2.807,0,0,1,1.431-.351A2.369,2.369,0,0,1,1841.358,328.306Z" transform="translate(-1775.744 -325.218)" fill="#fff" stroke="#fff" stroke-width="0.4"/>
          <path id="Path_12822" data-name="Path 12822" d="M1978.859,316.466a1.42,1.42,0,0,1-.537.311,2.118,2.118,0,0,1-.673.107,1.594,1.594,0,0,1-1.188-.424,1.611,1.611,0,0,1-.418-1.182V311.42h-1.086v-.486h1.086v-1.29h.565v1.29h1.878v.486h-1.878v3.8a1.247,1.247,0,0,0,.277.877,1.062,1.062,0,0,0,.82.3,1.313,1.313,0,0,0,.916-.328Z" transform="translate(-1904.433 -308.445)" fill="#fff" stroke="#fff" stroke-width="0.4"/>
          <path id="Path_12823" data-name="Path 12823" d="M2058.869,295.369a2.511,2.511,0,0,1,.645,1.855v3.45h-.565V297.27a2.1,2.1,0,0,0-.5-1.516,1.869,1.869,0,0,0-1.408-.52,2.172,2.172,0,0,0-1.641.622,2.311,2.311,0,0,0-.6,1.674v3.145h-.566v-8.394h.566V296a2.167,2.167,0,0,1,.905-.945,2.862,2.862,0,0,1,1.414-.334A2.37,2.37,0,0,1,2058.869,295.369Z" transform="translate(-1978.232 -292.281)" fill="#fff" stroke="#fff" stroke-width="0.4"/>
          <path id="Path_12824" data-name="Path 12824" d="M2160.921,330.795h-5.08a2.468,2.468,0,0,0,.351,1.227,2.243,2.243,0,0,0,.888.831,2.669,2.669,0,0,0,1.261.294,2.7,2.7,0,0,0,1.069-.209,2.081,2.081,0,0,0,.82-.617l.328.373a2.521,2.521,0,0,1-.968.713,3.368,3.368,0,0,1-2.834-.136,2.786,2.786,0,0,1-1.081-1.063,3.052,3.052,0,0,1-.39-1.55,3.209,3.209,0,0,1,.368-1.544,2.71,2.71,0,0,1,1.012-1.069,2.926,2.926,0,0,1,2.89-.006,2.7,2.7,0,0,1,1.007,1.058,3.178,3.178,0,0,1,.368,1.539ZM2157,328.436a2.112,2.112,0,0,0-.8.781,2.54,2.54,0,0,0-.345,1.137h4.525a2.37,2.37,0,0,0-.339-1.131,2.2,2.2,0,0,0-1.923-1.063A2.262,2.262,0,0,0,2157,328.436Z" transform="translate(-2072.309 -325.218)" fill="#fff" stroke="#fff" stroke-width="0.4"/>
        </g>
        <g id="Group_16978" data-name="Group 16978" transform="translate(0 15.014)">
          <path id="Path_12825" data-name="Path 12825" d="M949.909,525.057h2.324v5.271a7.387,7.387,0,0,1-2.381,1.247,9.14,9.14,0,0,1-2.8.434,7.542,7.542,0,0,1-3.646-.878,6.525,6.525,0,0,1-2.551-2.428,7.061,7.061,0,0,1,0-6.991,6.509,6.509,0,0,1,2.56-2.428,7.634,7.634,0,0,1,3.675-.879,8.026,8.026,0,0,1,3.023.548,5.935,5.935,0,0,1,2.286,1.606l-1.549,1.512a4.97,4.97,0,0,0-3.646-1.512,5.153,5.153,0,0,0-2.484.586,4.271,4.271,0,0,0-1.7,1.644,4.729,4.729,0,0,0-.614,2.418,4.654,4.654,0,0,0,.614,2.381,4.4,4.4,0,0,0,1.7,1.663,4.98,4.98,0,0,0,2.466.6,5.321,5.321,0,0,0,2.721-.68Z" transform="translate(-939.933 -517.802)" fill="#fff"/>
          <path id="Path_12826" data-name="Path 12826" d="M1152.075,574.583a4.817,4.817,0,0,1-1.917-1.842,5.508,5.508,0,0,1,0-5.337,4.84,4.84,0,0,1,1.917-1.833,6.124,6.124,0,0,1,5.536,0,4.847,4.847,0,0,1,1.917,1.833,5.508,5.508,0,0,1,0,5.337,4.823,4.823,0,0,1-1.917,1.842,6.124,6.124,0,0,1-5.536,0Zm4.912-2.229a3.5,3.5,0,0,0,0-4.572,2.886,2.886,0,0,0-2.154-.869,2.855,2.855,0,0,0-2.144.869,3.528,3.528,0,0,0,0,4.572,2.854,2.854,0,0,0,2.144.869A2.885,2.885,0,0,0,1156.988,572.354Z" transform="translate(-1134.996 -561.094)" fill="#fff"/>
          <path id="Path_12827" data-name="Path 12827" d="M1328.511,574.583a4.818,4.818,0,0,1-1.918-1.842,5.509,5.509,0,0,1,0-5.337,4.841,4.841,0,0,1,1.918-1.833,6.124,6.124,0,0,1,5.536,0,4.844,4.844,0,0,1,1.918,1.833,5.507,5.507,0,0,1,0,5.337,4.821,4.821,0,0,1-1.918,1.842,6.124,6.124,0,0,1-5.536,0Zm4.912-2.229a3.5,3.5,0,0,0,0-4.572,2.886,2.886,0,0,0-2.154-.869,2.855,2.855,0,0,0-2.145.869,3.529,3.529,0,0,0,0,4.572,2.854,2.854,0,0,0,2.145.869A2.885,2.885,0,0,0,1333.424,572.354Z" transform="translate(-1299.246 -561.094)" fill="#fff"/>
          <path id="Path_12828" data-name="Path 12828" d="M1513.185,565.023v8.559q0,5.328-5.442,5.328a10.1,10.1,0,0,1-2.758-.368,5.854,5.854,0,0,1-2.154-1.068l1.058-1.776a5.057,5.057,0,0,0,1.672.879,6.559,6.559,0,0,0,2.05.331,3.384,3.384,0,0,0,2.437-.756,3.088,3.088,0,0,0,.775-2.305v-.529a3.882,3.882,0,0,1-1.474,1,5.2,5.2,0,0,1-1.908.34,5.472,5.472,0,0,1-2.6-.614,4.609,4.609,0,0,1-1.833-1.729,4.849,4.849,0,0,1-.671-2.551,4.8,4.8,0,0,1,.671-2.541,4.568,4.568,0,0,1,1.833-1.71,5.544,5.544,0,0,1,2.6-.6,5.328,5.328,0,0,1,1.993.359,3.681,3.681,0,0,1,1.5,1.1v-1.341Zm-3.184,6.83a2.726,2.726,0,0,0,.86-2.088,2.674,2.674,0,0,0-.86-2.059,3.476,3.476,0,0,0-4.421,0,2.673,2.673,0,0,0-.86,2.059,2.725,2.725,0,0,0,.86,2.088,3.444,3.444,0,0,0,4.421,0Z" transform="translate(-1463.495 -561.094)" fill="#fff"/>
          <path id="Path_12829" data-name="Path 12829" d="M1704.214,509.653h2.362v14.019h-2.362Z" transform="translate(-1651.426 -509.653)" fill="#fff"/>
          <path id="Path_12830" data-name="Path 12830" d="M1781.507,570.824h-7.916a2.744,2.744,0,0,0,1.086,1.767,3.561,3.561,0,0,0,2.182.652,3.678,3.678,0,0,0,2.74-1.1l1.266,1.455a4.264,4.264,0,0,1-1.719,1.228,6.814,6.814,0,0,1-5.271-.246,4.761,4.761,0,0,1-1.955-1.842,5.2,5.2,0,0,1-.69-2.673,5.279,5.279,0,0,1,.671-2.654,4.76,4.76,0,0,1,1.861-1.842,5.43,5.43,0,0,1,2.683-.661,5.294,5.294,0,0,1,2.636.652,4.619,4.619,0,0,1,1.814,1.833,5.559,5.559,0,0,1,.652,2.73Q1781.545,570.37,1781.507,570.824Zm-6.981-3.354a2.821,2.821,0,0,0-.954,1.785h5.725a2.786,2.786,0,0,0-.926-1.776,2.816,2.816,0,0,0-1.927-.68A2.85,2.85,0,0,0,1774.526,567.47Z" transform="translate(-1713.813 -561.094)" fill="#fff"/>
          <path id="Path_12831" data-name="Path 12831" d="M2040.626,521.709a4.355,4.355,0,0,1,1.955,1.625,4.963,4.963,0,0,1,0,5.016,4.333,4.333,0,0,1-1.955,1.634,7.323,7.323,0,0,1-2.995.567h-2.985v3.817h-2.456V521.142h5.441A7.321,7.321,0,0,1,2040.626,521.709Zm-.671,6.084a2.693,2.693,0,0,0,0-3.892,3.773,3.773,0,0,0-2.437-.68h-2.872v5.253h2.872A3.773,3.773,0,0,0,2039.955,527.793Z" transform="translate(-1956.749 -520.348)" fill="#fff"/>
          <path id="Path_12832" data-name="Path 12832" d="M2227.5,509.653h2.362v14.019H2227.5Z" transform="translate(-2138.573 -509.653)" fill="#fff"/>
          <path id="Path_12833" data-name="Path 12833" d="M2304.143,565.977a4.127,4.127,0,0,1,1.181,3.221v5.914h-2.229v-1.228a2.748,2.748,0,0,1-1.238,1.011,4.839,4.839,0,0,1-1.937.35,4.747,4.747,0,0,1-1.984-.387,3.063,3.063,0,0,1-1.313-1.077,2.732,2.732,0,0,1-.463-1.559,2.672,2.672,0,0,1,1.011-2.182,5.02,5.02,0,0,1,3.184-.822h2.608v-.151a2.068,2.068,0,0,0-.633-1.625,2.739,2.739,0,0,0-1.88-.567,5.427,5.427,0,0,0-1.672.265,4.115,4.115,0,0,0-1.389.737l-.926-1.719a5.734,5.734,0,0,1,1.908-.926,8.49,8.49,0,0,1,2.362-.321A4.921,4.921,0,0,1,2304.143,565.977Zm-2.154,7.142a2.212,2.212,0,0,0,.973-1.162v-1.171h-2.437q-2.041,0-2.041,1.341a1.2,1.2,0,0,0,.51,1.02,2.338,2.338,0,0,0,1.417.378A3.05,3.05,0,0,0,2301.989,573.119Z" transform="translate(-2202.487 -561.094)" fill="#fff"/>
          <path id="Path_12834" data-name="Path 12834" d="M2454.1,566.551l-4.723,10.9a5.08,5.08,0,0,1-1.606,2.314,3.848,3.848,0,0,1-2.286.671,4.7,4.7,0,0,1-1.493-.246,3.3,3.3,0,0,1-1.209-.68l.945-1.738a2.568,2.568,0,0,0,.8.51,2.461,2.461,0,0,0,.935.189,1.61,1.61,0,0,0,1.03-.321,2.843,2.843,0,0,0,.746-1.077l.17-.4-4.4-10.127h2.456l3.174,7.463,3.193-7.463Z" transform="translate(-2338.983 -562.621)" fill="#fff"/>
        </g>
      </g>
      <g id="Group_16988" data-name="Group 16988" transform="translate(9.334 7.85)">
        <g id="Group_16981" data-name="Group 16981" transform="translate(19.192 12.502)">
          <g id="Group_16980" data-name="Group 16980">
            <path id="Path_12835" data-name="Path 12835" d="M718.271,479.6l-6.349-3.664-5.221,5.048,4.772,4.613,6.8-3.924a1.2,1.2,0,0,0,0-2.073Z" transform="translate(-706.701 -475.939)" fill="#ffd109"/>
          </g>
        </g>
        <g id="Group_16983" data-name="Group 16983" transform="translate(1.038)">
          <g id="Group_16982" data-name="Group 16982">
            <path id="Path_12836" data-name="Path 12836" d="M466.163,306.816l-6.987-4.033-15.311-7.846,17.294,16.717Z" transform="translate(-443.865 -294.937)" fill="#06ef79"/>
          </g>
        </g>
        <g id="Group_16985" data-name="Group 16985" transform="translate(1.292 18.381)">
          <g id="Group_16984" data-name="Group 16984">
            <path id="Path_12837" data-name="Path 12837" d="M447.543,577.537l15.083-8.309,6.511-3.758-4.555-4.4Z" transform="translate(-447.543 -561.066)" fill="#f93646"/>
          </g>
        </g>
        <g id="Group_16987" data-name="Group 16987" transform="translate(0 0.676)">
          <g id="Group_16986" data-name="Group 16986">
            <path id="Path_12838" data-name="Path 12838" d="M428.852,304.73l-.016,33.761L446.306,321.6Z" transform="translate(-428.835 -304.73)" fill="#05d5fb"/>
          </g>
        </g>
      </g>
    </g>
  </g>
</svg>
