<svg id="Group_25794" data-name="Group 25794" xmlns="http://www.w3.org/2000/svg" xmlns:xlink="http://www.w3.org/1999/xlink" width="208.193" height="150.042" viewBox="0 0 208.193 150.042">
  <defs>
    <clipPath id="clip-path">
      <rect id="Rectangle_17870" data-name="Rectangle 17870" width="62.779" height="62.779" fill="none"/>
    </clipPath>
  </defs>
  <g id="Group_25684" data-name="Group 25684">
    <path id="Path_33313" data-name="Path 33313" d="M232.492,534.264s-29.719-38.142-10.807-68.576,45.593-14.223,82.5-63.935,90.881,18.4,79.134,54.591,74.924,2.4,24.186,77.919Z" transform="translate(-215.389 -384.222)" fill="#fafcfd"/>
  </g>
  <g id="Group_25685" data-name="Group 25685" transform="translate(71.428 110.468)">
    <path id="Path_33314" data-name="Path 33314" d="M748.792,1240.249c-.117-.106-.22-.211-.322-.317s-.209-.211-.3-.316c-.193-.21-.368-.419-.537-.628l-.248-.313-.23-.312c-.159-.208-.289-.415-.433-.623a16.449,16.449,0,0,1-1.344-2.469,16.143,16.143,0,0,1-.841-2.443,11.848,11.848,0,0,1-.382-2.418,8.857,8.857,0,0,1,.234-2.386c.179-.79.436-1.576.677-2.363.122-.393.239-.787.366-1.18a7.983,7.983,0,0,1,.5-1.173,22.055,22.055,0,0,1,1.495-2.319c.261-.386.519-.772.732-1.16a6.663,6.663,0,0,0,.518-1.172,5.357,5.357,0,0,0,.248-1.186,4.249,4.249,0,0,0-.045-1.2,5.11,5.11,0,0,0-.4-1.22c-.092-.2-.2-.411-.321-.617s-.243-.412-.369-.619a13.913,13.913,0,0,1-1.381-2.471,4.211,4.211,0,0,1-.266-1.213,4.966,4.966,0,0,1,.092-1.194,9.942,9.942,0,0,1,.718-2.361,10.752,10.752,0,0,1,1.42-2.323c.154-.192.312-.384.493-.574l.265-.286.29-.285c.092-.095.2-.189.308-.284s.216-.189.33-.282.239-.187.363-.281l.188-.14c.062-.047.138-.093.206-.139l1.061.056c.063.053.133.107.19.16l.172.159c.114.106.234.212.332.318s.207.211.3.315.194.21.276.314l.258.314.234.312c.159.208.3.415.429.622a10.726,10.726,0,0,1,1.167,2.46,9.946,9.946,0,0,1,.465,2.423,4.979,4.979,0,0,1-.035,1.2,4.219,4.219,0,0,1-.393,1.178,13.921,13.921,0,0,1-1.634,2.312c-.147.192-.3.384-.432.577s-.271.385-.384.579a5.144,5.144,0,0,0-.528,1.171,4.239,4.239,0,0,0-.171,1.19,5.36,5.36,0,0,0,.122,1.205,6.619,6.619,0,0,0,.391,1.22c.171.409.387.82.605,1.231a22.019,22.019,0,0,1,1.241,2.464,7.989,7.989,0,0,1,.377,1.219c.085.4.159.808.239,1.212.156.808.329,1.616.424,2.421a8.836,8.836,0,0,1-.019,2.4,11.832,11.832,0,0,1-.634,2.365,16.22,16.22,0,0,1-1.094,2.34,16.438,16.438,0,0,1-1.6,2.314c-.165.191-.316.383-.5.573l-.262.286-.28.285c-.191.189-.387.379-.6.568-.1.095-.219.188-.332.282s-.226.188-.354.281Z" transform="translate(-744.147 -1201.982)" fill="#b2c1dd"/>
  </g>
  <g id="Group_25686" data-name="Group 25686" transform="translate(60.777 98.855)">
    <path id="Path_33315" data-name="Path 33315" d="M676.239,1166.752c-.179-.11-.339-.223-.5-.337s-.325-.225-.47-.34c-.3-.228-.583-.459-.855-.691l-.4-.349-.377-.352c-.259-.234-.478-.473-.717-.709a21.849,21.849,0,0,1-2.357-2.905,21.509,21.509,0,0,1-1.692-2.992,15.731,15.731,0,0,1-1.085-3.072,11.765,11.765,0,0,1-.272-3.178c.043-1.077.189-2.167.313-3.255.065-.544.122-1.087.193-1.632a10.6,10.6,0,0,1,.374-1.656,29.3,29.3,0,0,1,1.393-3.4c.247-.568.492-1.136.676-1.7a8.815,8.815,0,0,0,.394-1.658,7.154,7.154,0,0,0,.038-1.612,5.653,5.653,0,0,0-.35-1.561,6.8,6.8,0,0,0-.821-1.5c-.169-.246-.365-.488-.569-.729s-.418-.481-.633-.721a18.539,18.539,0,0,1-2.406-2.9,5.608,5.608,0,0,1-.642-1.523,6.61,6.61,0,0,1-.169-1.585,13.23,13.23,0,0,1,.367-3.262,14.3,14.3,0,0,1,1.3-3.384c.155-.288.316-.577.506-.87l.278-.438.31-.442c.1-.146.222-.3.334-.445s.236-.3.363-.45.268-.3.408-.455l.211-.229c.071-.076.158-.155.236-.231l1.4-.184c.1.055.2.108.287.163l.263.166c.174.111.358.221.511.335s.322.226.467.34.305.229.438.345l.413.348.382.352c.259.234.489.471.713.71a14.3,14.3,0,0,1,2.123,2.936,13.237,13.237,0,0,1,1.2,3.058,6.591,6.591,0,0,1,.245,1.575,5.6,5.6,0,0,1-.228,1.637,18.535,18.535,0,0,1-1.578,3.421c-.146.287-.3.575-.426.859s-.262.57-.362.851a6.805,6.805,0,0,0-.407,1.661,5.63,5.63,0,0,0,.064,1.6,7.124,7.124,0,0,0,.451,1.548,8.823,8.823,0,0,0,.808,1.5c.322.493.7.979,1.09,1.464a29.373,29.373,0,0,1,2.221,2.923,10.625,10.625,0,0,1,.788,1.5c.209.508.4,1.019.607,1.528.4,1.019.822,2.035,1.141,3.064a11.779,11.779,0,0,1,.556,3.141,15.737,15.737,0,0,1-.257,3.248,21.432,21.432,0,0,1-.864,3.327,21.8,21.8,0,0,1-1.528,3.414c-.17.29-.32.578-.51.871l-.273.438-.3.441c-.2.294-.414.59-.648.888-.11.148-.241.3-.366.45s-.25.3-.395.453Z" transform="translate(-665.306 -1116.012)" fill="#cddfed"/>
  </g>
  <g id="Group_25687" data-name="Group 25687" transform="translate(50.01 111.255)">
    <path id="Path_33316" data-name="Path 33316" d="M607.67,1246.265c-.176-.031-.338-.071-.5-.11s-.328-.077-.477-.122c-.31-.086-.6-.181-.892-.279l-.425-.151-.408-.161c-.277-.1-.525-.224-.788-.337a18.553,18.553,0,0,1-2.768-1.56,18.237,18.237,0,0,1-2.27-1.836,13.352,13.352,0,0,1-1.816-2.088,10,10,0,0,1-1.207-2.426c-.3-.865-.527-1.771-.768-2.669-.119-.45-.244-.9-.357-1.35a9.084,9.084,0,0,1-.221-1.426,24.892,24.892,0,0,1,.041-3.118c.018-.526.034-1.051.005-1.551a7.5,7.5,0,0,0-.207-1.433,6.042,6.042,0,0,0-.474-1.285,4.786,4.786,0,0,0-.763-1.124,5.793,5.793,0,0,0-1.117-.929c-.21-.141-.44-.271-.677-.4s-.48-.25-.725-.372a15.763,15.763,0,0,1-2.805-1.54,4.751,4.751,0,0,1-.982-1,5.6,5.6,0,0,1-.628-1.2,11.268,11.268,0,0,1-.728-2.692,12.161,12.161,0,0,1-.032-3.078c.032-.276.07-.554.128-.845l.083-.433.107-.446c.032-.147.083-.3.125-.456s.094-.31.147-.468.117-.323.18-.486l.1-.247c.032-.082.076-.171.114-.257l1.051-.583c.092.013.191.023.278.039l.26.049c.172.033.352.063.508.105s.325.078.475.124.312.085.453.136l.435.145.411.159c.277.1.533.22.785.338a12.142,12.142,0,0,1,2.594,1.657,11.249,11.249,0,0,1,1.9,2.042,5.623,5.623,0,0,1,.685,1.168,4.766,4.766,0,0,1,.331,1.365,15.742,15.742,0,0,1-.179,3.195c-.026.272-.057.547-.068.812s-.029.532-.021.785a5.786,5.786,0,0,0,.2,1.439,4.8,4.8,0,0,0,.55,1.243,6.046,6.046,0,0,0,.839,1.082,7.489,7.489,0,0,0,1.107.934c.409.29.862.554,1.318.817a24.852,24.852,0,0,1,2.667,1.616,9.022,9.022,0,0,1,1.092.942c.324.336.637.679.956,1.017.634.681,1.284,1.352,1.858,2.065a10,10,0,0,1,1.419,2.308,13.344,13.344,0,0,1,.811,2.646,18.238,18.238,0,0,1,.356,2.9,18.53,18.53,0,0,1-.142,3.174c-.044.282-.073.557-.131.847l-.08.431-.1.441c-.069.3-.143.6-.235.9-.04.151-.1.312-.149.469s-.1.315-.17.482Z" transform="translate(-585.598 -1207.805)" fill="#50b89b"/>
  </g>
  <g id="Group_25688" data-name="Group 25688" transform="translate(51.556 111.523)">
    <rect id="Rectangle_17865" data-name="Rectangle 17865" width="0.092" height="43.314" transform="translate(0 0.045) rotate(-29.017)" fill="#fff"/>
  </g>
  <g id="Group_25689" data-name="Group 25689" transform="translate(50.072 112.011)">
    <path id="Path_33317" data-name="Path 33317" d="M591.131,1219.322l-5.072-2.412.04-.083,4.936,2.348-.152-5.769.092,0Z" transform="translate(-586.059 -1213.403)" fill="#fff"/>
  </g>
  <g id="Group_25690" data-name="Group 25690" transform="translate(50.512 115.073)">
    <path id="Path_33318" data-name="Path 33318" d="M596.069,1242.765l-6.753-1.4.019-.09,6.673,1.378,2.195-6.583.088.029Z" transform="translate(-589.315 -1236.075)" fill="#fff"/>
  </g>
  <g id="Group_25691" data-name="Group 25691" transform="translate(56.389 122.569)">
    <path id="Path_33319" data-name="Path 33319" d="M635.935,1294.793H635.9l-3.084-.168.005-.092,3.053.166,1.5-3.134.083.04Z" transform="translate(-632.82 -1291.563)" fill="#fff"/>
  </g>
  <g id="Group_25692" data-name="Group 25692" transform="translate(59.12 127.125)">
    <path id="Path_33320" data-name="Path 33320" d="M655.682,1328.034l-2.648-.248.009-.092,2.573.241.807-2.648.088.027Z" transform="translate(-653.034 -1325.287)" fill="#fff"/>
  </g>
  <g id="Group_25693" data-name="Group 25693" transform="translate(59.151 129.355)">
    <path id="Path_33321" data-name="Path 33321" d="M658.412,1346.88l-5.148-.776.014-.091,5.069.764,1.557-4.979.088.028Z" transform="translate(-653.265 -1341.798)" fill="#fff"/>
  </g>
  <g id="Group_25694" data-name="Group 25694" transform="translate(59.757 132.019)">
    <path id="Path_33322" data-name="Path 33322" d="M664.772,1368.4l-.036,0-6.981-.881.012-.092,6.945.877,2.534-6.785.087.032Z" transform="translate(-657.754 -1361.517)" fill="#fff"/>
  </g>
  <g id="Group_25695" data-name="Group 25695" transform="translate(61.738 136.205)">
    <path id="Path_33323" data-name="Path 33323" d="M672.416,1399.415v-.092l7.286-.055,3.613-6.762.081.044-3.639,6.811h-.028Z" transform="translate(-672.416 -1392.505)" fill="#fff"/>
  </g>
  <g id="Group_25696" data-name="Group 25696" transform="translate(66.585 142.355)">
    <path id="Path_33324" data-name="Path 33324" d="M708.313,1443.213l-.019-.09,4.407-.928,3.108-4.162.074.055-3.129,4.189-.017,0Z" transform="translate(-708.294 -1438.033)" fill="#fff"/>
  </g>
  <g id="Group_25697" data-name="Group 25697" transform="translate(72.226 118.326)">
    <path id="Path_33325" data-name="Path 33325" d="M751.869,1291.422c.141-.029.269-.064.4-.1s.261-.069.38-.109c.247-.076.48-.158.708-.244l.338-.13.323-.138c.22-.09.416-.192.624-.288a14.817,14.817,0,0,0,2.185-1.312,14.664,14.664,0,0,0,1.78-1.522,10.739,10.739,0,0,0,1.409-1.714,8.018,8.018,0,0,0,.913-1.971c.223-.7.383-1.432.557-2.157.085-.363.175-.724.256-1.09a7.248,7.248,0,0,0,.146-1.147,19.919,19.919,0,0,0-.1-2.5c-.026-.421-.05-.842-.038-1.243a6.033,6.033,0,0,1,.134-1.153,4.866,4.866,0,0,1,.351-1.041,3.845,3.845,0,0,1,.587-.918,4.634,4.634,0,0,1,.875-.769c.166-.118.347-.227.534-.334s.379-.211.573-.314a12.637,12.637,0,0,0,2.215-1.3,3.817,3.817,0,0,0,.765-.826,4.492,4.492,0,0,0,.477-.975,9.023,9.023,0,0,0,.524-2.174,9.742,9.742,0,0,0-.042-2.468c-.032-.22-.068-.443-.121-.674l-.076-.345-.1-.355c-.029-.117-.073-.242-.11-.363s-.082-.246-.128-.372-.1-.256-.155-.386l-.082-.2c-.028-.065-.065-.135-.1-.2l-.855-.444c-.073.013-.153.022-.222.038l-.207.045c-.138.031-.28.058-.405.1s-.259.069-.378.109-.248.075-.36.119l-.346.126-.326.136c-.22.09-.423.188-.622.289a9.728,9.728,0,0,0-2.042,1.386,9.016,9.016,0,0,0-1.476,1.679,4.493,4.493,0,0,0-.523.952,3.822,3.822,0,0,0-.235,1.1,12.64,12.64,0,0,0,.214,2.557c.027.218.058.438.073.649s.035.426.034.629a4.616,4.616,0,0,1-.126,1.157,3.831,3.831,0,0,1-.413,1.009,4.853,4.853,0,0,1-.649.886,5.984,5.984,0,0,1-.866.773c-.321.241-.679.463-1.039.684a19.833,19.833,0,0,0-2.1,1.354,7.212,7.212,0,0,0-.855.779c-.252.277-.5.558-.744.837-.493.559-1,1.112-1.444,1.7a8.014,8.014,0,0,0-1.087,1.882,10.717,10.717,0,0,0-.591,2.139,14.648,14.648,0,0,0-.221,2.331,14.881,14.881,0,0,0,.184,2.542c.041.225.071.445.124.676l.073.344.088.351c.062.236.128.474.208.72.036.121.085.248.13.373s.09.25.147.382Z" transform="translate(-750.059 -1260.154)" fill="#50b89b"/>
  </g>
  <g id="Group_25698" data-name="Group 25698" transform="translate(73.577 118.531)">
    <path id="Path_33326" data-name="Path 33326" d="M760.119,1292.527l-.066-.034,16-30.825.066.034Z" transform="translate(-760.053 -1261.668)" fill="#fff"/>
  </g>
  <g id="Group_25699" data-name="Group 25699" transform="translate(86.904 118.996)">
    <path id="Path_33327" data-name="Path 33327" d="M858.717,1269.857l-.006-4.748h.074l.006,4.627,3.9-1.991.034.066Z" transform="translate(-858.711 -1265.109)" fill="#fff"/>
  </g>
  <g id="Group_25700" data-name="Group 25700" transform="translate(83.367 121.548)">
    <path id="Path_33328" data-name="Path 33328" d="M834.459,1289.321l-1.927-5.29.07-.025,1.9,5.228,5.318-1.253.017.072Z" transform="translate(-832.531 -1284.006)" fill="#fff"/>
  </g>
  <g id="Group_25701" data-name="Group 25701" transform="translate(82.296 127.59)">
    <path id="Path_33329" data-name="Path 33329" d="M825.9,1331.291l-.011-.022-1.281-2.5.066-.034,1.27,2.478,2.444-.2.006.074Z" transform="translate(-824.602 -1328.734)" fill="#fff"/>
  </g>
  <g id="Group_25702" data-name="Group 25702" transform="translate(81.14 131.276)">
    <path id="Path_33330" data-name="Path 33330" d="M816.768,1358.206l-.725-2.162.07-.024.706,2.1,2.057-.25.009.073Z" transform="translate(-816.043 -1356.021)" fill="#fff"/>
  </g>
  <g id="Group_25703" data-name="Group 25703" transform="translate(78.559 133.137)">
    <path id="Path_33331" data-name="Path 33331" d="M798.314,1373.835l-1.379-4.016.07-.024,1.358,3.956,4.046-.724.013.073Z" transform="translate(-796.935 -1369.794)" fill="#fff"/>
  </g>
  <g id="Group_25704" data-name="Group 25704" transform="translate(75.848 135.348)">
    <path id="Path_33332" data-name="Path 33332" d="M779.071,1391.629l-2.2-5.437.069-.028,2.181,5.382,5.547-.856.011.073Z" transform="translate(-776.868 -1386.164)" fill="#fff"/>
  </g>
  <g id="Group_25705" data-name="Group 25705" transform="translate(73.228 138.778)">
    <path id="Path_33333" data-name="Path 33333" d="M760.544,1416.971l-.011-.019-3.057-5.36.064-.037,3.046,5.341,5.841-.117v.074Z" transform="translate(-757.477 -1411.556)" fill="#fff"/>
  </g>
  <g id="Group_25706" data-name="Group 25706" transform="translate(72.198 143.741)">
    <path id="Path_33334" data-name="Path 33334" d="M756.033,1452.276l-3.581-.651-.009-.011-2.592-3.278.058-.046,2.583,3.267,3.553.647Z" transform="translate(-749.852 -1448.289)" fill="#fff"/>
  </g>
  <g id="Group_25707" data-name="Group 25707" transform="translate(67.937 114.882)">
    <path id="Path_33335" data-name="Path 33335" d="M723.838,1269.4c.113-.089.212-.178.31-.267s.2-.178.291-.267c.187-.178.358-.357.524-.535l.243-.268.227-.268c.156-.178.286-.357.429-.536a14.876,14.876,0,0,0,1.365-2.151,14.65,14.65,0,0,0,.909-2.158,10.73,10.73,0,0,0,.492-2.164,8.009,8.009,0,0,0-.067-2.172c-.114-.726-.3-1.452-.468-2.178-.087-.363-.168-.725-.259-1.089a7.263,7.263,0,0,0-.384-1.091,20,20,0,0,0-1.21-2.189c-.212-.365-.422-.73-.591-1.094a6,6,0,0,1-.4-1.091,4.881,4.881,0,0,1-.152-1.088,3.852,3.852,0,0,1,.114-1.084,4.627,4.627,0,0,1,.437-1.079c.1-.179.209-.359.328-.538s.245-.358.371-.537a12.642,12.642,0,0,0,1.4-2.151,3.825,3.825,0,0,0,.314-1.081,4.509,4.509,0,0,0-.011-1.086,9.007,9.007,0,0,0-.506-2.178,9.723,9.723,0,0,0-1.143-2.187c-.128-.183-.259-.366-.411-.548l-.222-.275-.245-.275c-.078-.092-.174-.184-.261-.275s-.183-.184-.281-.276-.205-.184-.312-.276l-.161-.138c-.054-.046-.119-.092-.178-.138l-.963-.014c-.06.045-.127.089-.182.133l-.165.133c-.109.089-.224.177-.319.267s-.2.178-.289.267-.188.178-.269.268l-.252.267-.23.268c-.157.179-.294.358-.426.537a9.73,9.73,0,0,0-1.205,2.154,9.017,9.017,0,0,0-.568,2.163,4.491,4.491,0,0,0-.041,1.085,3.806,3.806,0,0,0,.283,1.089,12.62,12.62,0,0,0,1.337,2.19c.121.183.248.365.356.548s.222.365.312.547a4.632,4.632,0,0,1,.406,1.091,3.837,3.837,0,0,1,.083,1.087,4.866,4.866,0,0,1-.183,1.083,6.008,6.008,0,0,1-.428,1.079c-.179.359-.4.718-.622,1.077a19.892,19.892,0,0,0-1.272,2.152,7.227,7.227,0,0,0-.415,1.08c-.1.36-.193.721-.29,1.081-.19.721-.4,1.442-.531,2.163a8.015,8.015,0,0,0-.128,2.169,10.694,10.694,0,0,0,.43,2.177,14.658,14.658,0,0,0,.847,2.183,14.844,14.844,0,0,0,1.3,2.189c.138.183.263.366.414.549l.219.275.236.275c.161.183.327.366.509.55.086.092.187.184.283.276s.193.184.3.276Z" transform="translate(-718.306 -1234.656)" fill="#f83252"/>
  </g>
  <g id="Group_25708" data-name="Group 25708" transform="translate(72.951 114.888)">
    <rect id="Rectangle_17866" data-name="Rectangle 17866" width="34.731" height="0.074" transform="translate(0 34.728) rotate(-89.186)" fill="#fff"/>
  </g>
  <g id="Group_25709" data-name="Group 25709" transform="translate(71.263 116.469)">
    <path id="Path_33336" data-name="Path 33336" d="M745.056,1250.68l-.027-.054-2.105-4.188.066-.033,2.078,4.134,2.6-3.529.06.044Z" transform="translate(-742.924 -1246.404)" fill="#fff"/>
  </g>
  <g id="Group_25710" data-name="Group 25710" transform="translate(69.256 120.337)">
    <path id="Path_33337" data-name="Path 33337" d="M732.162,1278.963l-.024-.023-4.069-3.843.051-.054,4.045,3.821,4.193-3.5.048.057Z" transform="translate(-728.069 -1275.043)" fill="#fff"/>
  </g>
  <g id="Group_25711" data-name="Group 25711" transform="translate(71.009 126.221)">
    <path id="Path_33338" data-name="Path 33338" d="M743.334,1320.331l-2.286-1.676.044-.06,2.246,1.647,2.1-1.274.039.063Z" transform="translate(-741.048 -1318.595)" fill="#fff"/>
  </g>
  <g id="Group_25712" data-name="Group 25712" transform="translate(71.623 130.032)">
    <path id="Path_33339" data-name="Path 33339" d="M747.206,1348.472l-1.617-1.608.052-.053,1.574,1.566,1.727-1.145.041.062Z" transform="translate(-745.589 -1346.812)" fill="#fff"/>
  </g>
  <g id="Group_25713" data-name="Group 25713" transform="translate(70.149 132.852)">
    <path id="Path_33340" data-name="Path 33340" d="M737.71,1370.712l-.023-.022-3.01-2.951.052-.053,2.987,2.928,3.293-2.46.044.059Z" transform="translate(-734.678 -1367.687)" fill="#fff"/>
  </g>
  <g id="Group_25714" data-name="Group 25714" transform="translate(68.718 136.044)">
    <path id="Path_33341" data-name="Path 33341" d="M728.491,1395.246l-4.406-3.873.049-.056,4.362,3.835,4.576-3.251.043.06Z" transform="translate(-724.085 -1391.317)" fill="#fff"/>
  </g>
  <g id="Group_25715" data-name="Group 25715" transform="translate(67.917 140.287)">
    <path id="Path_33342" data-name="Path 33342" d="M723.308,1426.217l-.018-.012-5.134-3.422.041-.062,5.115,3.41,5.17-2.722.034.066Z" transform="translate(-718.156 -1422.721)" fill="#fff"/>
  </g>
  <g id="Group_25716" data-name="Group 25716" transform="translate(69.223 145.187)">
    <path id="Path_33343" data-name="Path 33343" d="M731.625,1460.839l-.013-.006-3.786-1.769.031-.067,3.774,1.763,3.466-1.014.021.071Z" transform="translate(-727.826 -1458.997)" fill="#fff"/>
  </g>
  <g id="Group_25717" data-name="Group 25717" transform="translate(150.917 125.055)">
    <path id="Path_33344" data-name="Path 33344" d="M1333.058,1334.526c-.038-.113-.067-.221-.1-.328s-.061-.217-.082-.32c-.05-.21-.089-.413-.124-.614l-.049-.3-.038-.291c-.028-.2-.037-.381-.056-.571a12.483,12.483,0,0,1,.023-2.129,12.259,12.259,0,0,1,.346-1.926,8.95,8.95,0,0,1,.641-1.74,6.7,6.7,0,0,1,1.036-1.491c.41-.456.87-.881,1.32-1.312.226-.215.448-.432.677-.645a6.043,6.043,0,0,1,.766-.59,16.671,16.671,0,0,1,1.844-.982c.315-.159.628-.319.912-.5a5,5,0,0,0,.775-.584,4.046,4.046,0,0,0,.6-.693,3.206,3.206,0,0,0,.414-.811,3.863,3.863,0,0,0,.185-.955c.015-.169.017-.346.016-.526s-.008-.362-.016-.546a10.56,10.56,0,0,1,0-2.144,3.178,3.178,0,0,1,.272-.9,3.739,3.739,0,0,1,.5-.756,7.521,7.521,0,0,1,1.346-1.3,8.122,8.122,0,0,1,1.8-1.012c.173-.07.348-.138.538-.2l.28-.091.3-.081c.1-.029.205-.049.308-.074s.212-.045.322-.065.228-.035.344-.051l.176-.023c.059-.008.125-.01.188-.016l.681.429c.022.058.048.119.066.176l.055.169c.036.112.077.227.1.332s.059.216.08.319.051.211.067.31l.055.3.039.293c.028.2.043.385.054.57a8.139,8.139,0,0,1-.136,2.058,7.548,7.548,0,0,1-.587,1.774,3.773,3.773,0,0,1-.465.779,3.189,3.189,0,0,1-.694.634,10.559,10.559,0,0,1-1.934.925c-.168.073-.34.143-.5.222s-.322.155-.468.241a3.88,3.88,0,0,0-.781.58,3.208,3.208,0,0,0-.553.724,4.075,4.075,0,0,0-.365.842,5.034,5.034,0,0,0-.191.951c-.038.333-.047.685-.054,1.038a16.777,16.777,0,0,1-.089,2.088,6.044,6.044,0,0,1-.2.945c-.093.3-.193.593-.289.89-.194.592-.379,1.19-.613,1.757a6.7,6.7,0,0,1-.9,1.578,8.938,8.938,0,0,1-1.293,1.329,12.2,12.2,0,0,1-1.587,1.144,12.427,12.427,0,0,1-1.91.941c-.18.066-.35.137-.54.2l-.279.092-.29.085c-.2.055-.4.108-.607.154-.1.025-.215.043-.324.064s-.219.041-.338.055Z" transform="translate(-1332.579 -1309.969)" fill="#cddfed"/>
  </g>
  <g id="Group_25718" data-name="Group 25718" transform="translate(146.647 111.258)">
    <path id="Path_33345" data-name="Path 33345" d="M1304.609,1245.968c-.107-.119-.2-.235-.289-.351s-.188-.234-.268-.348c-.171-.231-.325-.459-.473-.686l-.216-.339-.2-.337c-.138-.225-.246-.446-.368-.669a16.5,16.5,0,0,1-1.087-2.617,16.259,16.259,0,0,1-.586-2.536,11.907,11.907,0,0,1-.128-2.464,8.91,8.91,0,0,1,.485-2.367c.263-.773.6-1.533.927-2.3.164-.381.322-.763.49-1.144a8.084,8.084,0,0,1,.627-1.122,22.248,22.248,0,0,1,1.741-2.168c.3-.359.6-.719.855-1.086a6.723,6.723,0,0,0,.642-1.12,5.4,5.4,0,0,0,.373-1.163,4.263,4.263,0,0,0,.081-1.209,5.151,5.151,0,0,0-.274-1.266c-.07-.215-.16-.432-.257-.652s-.2-.439-.3-.659a14.022,14.022,0,0,1-1.125-2.622,4.246,4.246,0,0,1-.139-1.244,4.991,4.991,0,0,1,.217-1.187,10.032,10.032,0,0,1,.968-2.29,10.808,10.808,0,0,1,1.667-2.179c.174-.176.353-.351.554-.523l.3-.259.32-.255c.1-.086.225-.168.338-.252s.236-.166.36-.248.259-.162.394-.243l.2-.121c.068-.04.148-.078.221-.117l1.058.167c.057.06.122.121.173.18l.155.178c.1.118.213.237.3.353s.185.233.266.347.172.231.244.344l.226.341.2.337c.138.226.254.447.365.669a10.815,10.815,0,0,1,.911,2.588,10.024,10.024,0,0,1,.211,2.477,5.01,5.01,0,0,1-.161,1.2,4.247,4.247,0,0,1-.517,1.139,14.033,14.033,0,0,1-1.881,2.146c-.167.177-.341.353-.494.532s-.312.358-.446.54a5.128,5.128,0,0,0-.652,1.118,4.27,4.27,0,0,0-.3,1.175,5.41,5.41,0,0,0,0,1.221,6.685,6.685,0,0,0,.264,1.264c.128.428.3.863.478,1.3a22.128,22.128,0,0,1,.985,2.6,8.031,8.031,0,0,1,.25,1.261c.043.414.075.826.113,1.239.072.826.16,1.655.171,2.471a8.927,8.927,0,0,1-.271,2.4,11.956,11.956,0,0,1-.884,2.3,16.313,16.313,0,0,1-1.342,2.231,16.575,16.575,0,0,1-1.843,2.151c-.186.174-.357.351-.557.522l-.293.259-.31.256c-.211.17-.428.34-.662.506-.112.084-.24.165-.363.248s-.246.165-.384.244Z" transform="translate(-1300.976 -1207.83)" fill="#cddfed"/>
  </g>
  <g id="Group_25719" data-name="Group 25719" transform="translate(42.58 19.422)">
    <path id="Path_33346" data-name="Path 33346" d="M543.668,542.859h-11.28a1.79,1.79,0,0,1-1.79-1.79V529.79a1.79,1.79,0,0,1,1.79-1.79h11.28a1.79,1.79,0,0,1,1.79,1.79v11.28a1.79,1.79,0,0,1-1.79,1.79" transform="translate(-530.598 -528)" fill="#f83252"/>
  </g>
  <g id="Group_25720" data-name="Group 25720" transform="translate(45.221 22.801)">
    <path id="Path_33347" data-name="Path 33347" d="M554.3,561.474l-4.032-5.06a.539.539,0,0,1,.843-.671l3.133,3.932,4.5-6.434a.539.539,0,1,1,.883.618Z" transform="translate(-550.149 -553.011)" fill="#fff"/>
  </g>
  <g id="Group_25721" data-name="Group 25721" transform="translate(74.791 9.875)">
    <path id="Path_33348" data-name="Path 33348" d="M846.445,462.524V591.817a5.205,5.205,0,0,1-5.207,5.2H774.249a5.2,5.2,0,0,1-5.206-5.2V462.524a5.2,5.2,0,0,1,5.206-5.2h66.989a5.2,5.2,0,0,1,5.207,5.2" transform="translate(-769.043 -457.32)" fill="#b2c1dd"/>
  </g>
  <g id="Group_25722" data-name="Group 25722" transform="translate(76.663 11.587)">
    <path id="Path_33349" data-name="Path 33349" d="M856.558,475.076V601.2a5.016,5.016,0,0,1-4.954,5.076H787.854A5.016,5.016,0,0,1,782.9,601.2V475.076A5.016,5.016,0,0,1,787.854,470H851.6a5.016,5.016,0,0,1,4.954,5.076" transform="translate(-782.9 -470)" fill="#fff"/>
  </g>
  <g id="Group_25723" data-name="Group 25723" transform="translate(93.754 9.875)">
    <path id="Path_33350" data-name="Path 33350" d="M948.9,457.32v3.334a4.323,4.323,0,0,1-4.323,4.323H913.746a4.323,4.323,0,0,1-4.323-4.323V457.32Z" transform="translate(-909.423 -457.32)" fill="#b2c1dd"/>
  </g>
  <g id="Group_25724" data-name="Group 25724" transform="translate(99.653 23.25)">
    <path id="Path_33351" data-name="Path 33351" d="M980.092,557.683H953.766a.675.675,0,0,1,0-1.351h26.326a.675.675,0,1,1,0,1.351Z" transform="translate(-953.09 -556.332)" fill="#eef2f8"/>
  </g>
  <g id="Group_25725" data-name="Group 25725" transform="translate(88.126 29.914)">
    <path id="Path_33352" data-name="Path 33352" d="M917.812,607.019H868.431a.675.675,0,0,1,0-1.351h49.381a.675.675,0,0,1,0,1.351Z" transform="translate(-867.756 -605.668)" fill="#eef2f8"/>
  </g>
  <g id="Group_25726" data-name="Group 25726" transform="translate(80.201 35.606)">
    <path id="Path_33353" data-name="Path 33353" d="M871.672,714.383H813.088a4,4,0,0,1-4-4V651.8a4,4,0,0,1,4-4h58.585a4,4,0,0,1,4,4v58.585A4,4,0,0,1,871.672,714.383Zm-58.585-66.312a3.732,3.732,0,0,0-3.729,3.728v58.585a3.732,3.732,0,0,0,3.729,3.728h58.585a3.733,3.733,0,0,0,3.729-3.728V651.8a3.732,3.732,0,0,0-3.729-3.728Z" transform="translate(-809.089 -647.801)" fill="#eef2f8"/>
  </g>
  <g id="Group_25727" data-name="Group 25727" transform="translate(95.698 35.403)">
    <path id="Path_33354" data-name="Path 33354" d="M924.146,713.287a.338.338,0,0,1-.305-.482c.036-.077,3.717-7.834,9.2-17.295,5.064-8.739,12.746-20.763,20.589-28.419,14.9-14.542,16.925-20.5,16.944-20.557a.338.338,0,1,1,.643.206c-.079.245-2.1,6.174-17.115,20.833-14.912,14.557-29.5,45.211-29.65,45.519A.338.338,0,0,1,924.146,713.287Z" transform="translate(-923.809 -646.3)" fill="#eef2f8"/>
  </g>
  <g id="Group_25728" data-name="Group 25728" transform="translate(79.998 52.181)">
    <path id="Path_33355" data-name="Path 33355" d="M835.826,798.381a.338.338,0,0,1-.327-.253c-.033-.13-3.43-13.047-9.794-21a16.523,16.523,0,0,0-11.227-5.8,23.107,23.107,0,0,0-6.483.153.338.338,0,0,1-.134-.662,23.384,23.384,0,0,1,6.7-.162,17.184,17.184,0,0,1,11.677,6.046c6.455,8.068,9.886,21.123,9.92,21.254a.338.338,0,0,1-.327.423Z" transform="translate(-807.59 -770.499)" fill="#eef2f8"/>
  </g>
  <g id="Group_25729" data-name="Group 25729" transform="translate(95.698 35.403)">
    <path id="Path_33356" data-name="Path 33356" d="M924.146,667.488a.338.338,0,0,1-.193-.615l29.539-20.513a.338.338,0,1,1,.385.555l-29.539,20.513A.336.336,0,0,1,924.146,667.488Z" transform="translate(-923.808 -646.3)" fill="#eef2f8"/>
  </g>
  <g id="Group_25730" data-name="Group 25730" transform="translate(120.824 61.066)">
    <path id="Path_33357" data-name="Path 33357" d="M1115.643,877.6a.338.338,0,0,1-.332-.4c1.849-9.221.263-19.728-1.394-26.919a102.318,102.318,0,0,0-4.082-13.538.338.338,0,1,1,.627-.251,103.118,103.118,0,0,1,4.113,13.638c1.671,7.255,3.27,17.865,1.4,27.2A.338.338,0,0,1,1115.643,877.6Z" transform="translate(-1109.812 -836.274)" fill="#eef2f8"/>
  </g>
  <g id="Group_25731" data-name="Group 25731" transform="translate(123.898 66.122)">
    <path id="Path_33358" data-name="Path 33358" d="M1140.133,873.705a7.566,7.566,0,0,0-7.565,7.565c0,4.177,7.565,16.17,7.565,16.17s7.565-11.993,7.565-16.17a7.564,7.564,0,0,0-7.565-7.565m0,11.242a3.607,3.607,0,1,1,3.607-3.607,3.606,3.606,0,0,1-3.607,3.607" transform="translate(-1132.568 -873.705)" fill="#f83252"/>
  </g>
  <g id="Group_25732" data-name="Group 25732" transform="translate(80.336 107.589)">
    <path id="Path_33359" data-name="Path 33359" d="M820.011,1192.915h-7.594a2.326,2.326,0,0,1-2.327-2.327v-7.594a2.326,2.326,0,0,1,2.327-2.327h7.594a2.326,2.326,0,0,1,2.327,2.327v7.594a2.327,2.327,0,0,1-2.327,2.327" transform="translate(-810.09 -1180.668)" fill="#fcd040"/>
  </g>
  <g id="Group_25733" data-name="Group 25733" transform="translate(81.671 109.525)">
    <path id="Path_33360" data-name="Path 33360" d="M824.349,1203.212l-4.264-4.558a.405.405,0,0,1,.592-.554l3.571,3.818,4.578-6.74a.405.405,0,1,1,.67.455Z" transform="translate(-819.976 -1195)" fill="#fff"/>
  </g>
  <g id="Group_25734" data-name="Group 25734" transform="translate(95.048 110.448)">
    <path id="Path_33361" data-name="Path 33361" d="M949.156,1202.778H919.47a.473.473,0,0,1,0-.946h29.686a.473.473,0,1,1,0,.946Z" transform="translate(-918.997 -1201.832)" fill="#eef2f8"/>
  </g>
  <g id="Group_25735" data-name="Group 25735" transform="translate(95.048 115.311)">
    <path id="Path_33362" data-name="Path 33362" d="M955.412,1238.778H919.47a.473.473,0,0,1,0-.946h35.942a.473.473,0,1,1,0,.946Z" transform="translate(-918.997 -1237.832)" fill="#eef2f8"/>
  </g>
  <g id="Group_25736" data-name="Group 25736" transform="translate(80.336 125.372)">
    <path id="Path_33363" data-name="Path 33363" d="M820.011,1324.563h-7.594a2.326,2.326,0,0,1-2.327-2.327v-7.594a2.326,2.326,0,0,1,2.327-2.327h7.594a2.326,2.326,0,0,1,2.327,2.327v7.594a2.327,2.327,0,0,1-2.327,2.327" transform="translate(-810.09 -1312.315)" fill="#50b89b"/>
  </g>
  <g id="Group_25737" data-name="Group 25737" transform="translate(81.671 127.308)">
    <path id="Path_33364" data-name="Path 33364" d="M824.349,1334.859l-4.264-4.558a.405.405,0,0,1,.592-.554l3.571,3.817,4.578-6.74a.405.405,0,1,1,.67.455Z" transform="translate(-819.976 -1326.647)" fill="#fff"/>
  </g>
  <g id="Group_25738" data-name="Group 25738" transform="translate(95.048 128.231)">
    <path id="Path_33365" data-name="Path 33365" d="M949.156,1334.426H919.47a.473.473,0,0,1,0-.946h29.686a.473.473,0,0,1,0,.946Z" transform="translate(-918.997 -1333.48)" fill="#eef2f8"/>
  </g>
  <g id="Group_25739" data-name="Group 25739" transform="translate(95.048 133.094)">
    <path id="Path_33366" data-name="Path 33366" d="M955.412,1370.426H919.47a.473.473,0,0,1,0-.946h35.942a.473.473,0,1,1,0,.946Z" transform="translate(-918.997 -1369.48)" fill="#eef2f8"/>
  </g>
  <g id="Group_25740" data-name="Group 25740" transform="translate(43.491 145.552)">
    <rect id="Rectangle_17867" data-name="Rectangle 17867" width="2.127" height="2.7" transform="translate(0 0)" fill="#616fb2"/>
  </g>
  <g id="Group_25741" data-name="Group 25741" transform="translate(22.062 145.552)">
    <rect id="Rectangle_17868" data-name="Rectangle 17868" width="2.127" height="2.7" transform="translate(0 0)" fill="#616fb2"/>
  </g>
  <g id="Group_25742" data-name="Group 25742" transform="translate(21.772 146.929)">
    <path id="Path_33367" data-name="Path 33367" d="M379.044,1471.954l4.685,2.586h-7.17l.29-2.586s.7.574,2.127-.061Z" transform="translate(-376.56 -1471.893)" fill="#0b0147"/>
  </g>
  <g id="Group_25743" data-name="Group 25743" transform="translate(21.648 113.3)">
    <path id="Path_33368" data-name="Path 33368" d="M376.038,1255.2H378.2l6.324-28.4c1-4.5-8.108-5.719-8.069,0-1.053,6.98-.962,17.073-.416,28.4" transform="translate(-375.64 -1222.945)" fill="#0b0147"/>
  </g>
  <g id="Group_25744" data-name="Group 25744" transform="translate(22.4 90.246)">
    <path id="Path_33369" data-name="Path 33369" d="M381.716,1052.283c-.477,8-.574,17.064-.432,26.789-.006.037-.017.112-.017.112-.814,5.561,6.641,6.415,8.069,0l5.99-26.9Z" transform="translate(-381.206 -1052.283)" fill="#0b0147"/>
  </g>
  <g id="Group_25745" data-name="Group 25745" transform="translate(43.201 146.929)">
    <path id="Path_33370" data-name="Path 33370" d="M537.679,1471.954l4.685,2.586h-7.17l.29-2.586s.7.574,2.127-.061Z" transform="translate(-535.194 -1471.893)" fill="#0b0147"/>
  </g>
  <g id="Group_25746" data-name="Group 25746" transform="translate(37.056 113.3)">
    <path id="Path_33371" data-name="Path 33371" d="M498.265,1255.2H496.1l-6.324-28.4c-1-4.5,8.108-5.719,8.069,0,1.053,6.98.962,17.073.416,28.4" transform="translate(-489.703 -1222.945)" fill="#0b0147"/>
  </g>
  <g id="Group_25747" data-name="Group 25747" transform="translate(31.144 90.246)">
    <path id="Path_33372" data-name="Path 33372" d="M459.546,1052.283c.477,8,.574,17.064.432,26.789.006.037.016.112.016.112.814,5.561-6.641,6.415-8.069,0l-5.99-26.9Z" transform="translate(-445.935 -1052.283)" fill="#0b0147"/>
  </g>
  <g id="Group_25748" data-name="Group 25748" transform="translate(34.25 61.189)">
    <path id="Path_33373" data-name="Path 33373" d="M470.911,838.343h0a5.278,5.278,0,0,1,7.418.826l9.657,12.078a4.148,4.148,0,0,1-.65,5.83l-.02.016a4.148,4.148,0,0,1-5.424-.21L470.6,846.319a5.278,5.278,0,0,1,.31-7.976" transform="translate(-468.929 -837.187)" fill="#fcd040"/>
  </g>
  <g id="Group_25749" data-name="Group 25749" transform="translate(47.053 63.992)">
    <path id="Path_33374" data-name="Path 33374" d="M565.056,869.993l16.476-12.055,2.162,2.955-14.384,14.112a3.3,3.3,0,1,1-4.254-5.012" transform="translate(-563.706 -857.938)" fill="#616fb2"/>
  </g>
  <g id="Group_25750" data-name="Group 25750" transform="translate(22.91 59.433)">
    <path id="Path_33375" data-name="Path 33375" d="M384.984,855a36.642,36.642,0,0,0,21.784,0l-2.34-28.247c-6.3-3.439-14.943-3.4-19.443,0Z" transform="translate(-384.984 -824.188)" fill="#fcd040"/>
  </g>
  <g id="Group_25751" data-name="Group 25751" transform="translate(29.645 55.014)">
    <path id="Path_33376" data-name="Path 33376" d="M441.083,796.66c-.086,1.439-.57,3.094-2.355,3.007-3.128-.151-3.885-3.439-3.885-3.439s.255-4.705.329-4.753h5.811v3.133a10.132,10.132,0,0,1,.1,2.052" transform="translate(-434.844 -791.475)" fill="#616fb2"/>
  </g>
  <g id="Group_25752" data-name="Group 25752" transform="translate(30.747 55.014)">
    <path id="Path_33377" data-name="Path 33377" d="M448.138,796.66c-4.5-.933-5.138-3.305-5.138-3.305l4.52-1.88h.518v3.133a10.134,10.134,0,0,1,.1,2.052" transform="translate(-443 -791.475)" fill="#4150a2"/>
  </g>
  <g id="Group_25753" data-name="Group 25753" transform="translate(29.121 47.62)">
    <path id="Path_33378" data-name="Path 33378" d="M430.966,742.429s1.349,6.591,6.377,5.242a3.339,3.339,0,0,0,1.51-.871,3.091,3.091,0,0,0,.786-1.349c.506-1.828.416-4.812-.128-8.71l-8.545.727Z" transform="translate(-430.966 -736.74)" fill="#616fb2"/>
  </g>
  <g id="Group_25754" data-name="Group 25754" transform="translate(64.849 61.466)">
    <path id="Path_33379" data-name="Path 33379" d="M695.445,841.8s1.609-3.743,1.567-2.181-.068,1.68-.068,1.68,1.976-1.081,2.094-1.638,2.59.605,1.072,2.784c-1.475,2.117-2.526,2.326-2.526,2.326a3.455,3.455,0,0,1-2.139-2.971" transform="translate(-695.445 -839.237)" fill="#616fb2"/>
  </g>
  <g id="Group_25755" data-name="Group 25755" transform="translate(43.136 72.245)">
    <rect id="Rectangle_17869" data-name="Rectangle 17869" width="0.135" height="5.311" transform="translate(0 0.011) rotate(-4.736)" fill="#ff850b"/>
  </g>
  <g id="Group_25756" data-name="Group 25756" transform="translate(31.996 72.122)">
    <path id="Path_33380" data-name="Path 33380" d="M458.186,920.9a2.976,2.976,0,1,1-2.97-2.775,2.877,2.877,0,0,1,2.97,2.775" transform="translate(-452.247 -918.121)" fill="#ff850b"/>
  </g>
  <g id="Group_25757" data-name="Group 25757" transform="translate(28.544 44.425)">
    <path id="Path_33381" data-name="Path 33381" d="M436.275,719.617s4.855-3.186,3.589-5.584-.511.6-6.663,0-6.453,3.68-6.508,4.731a23.1,23.1,0,0,0,1.311,5.8s1.317-5.463,3.149-7.356c1.013-1.047,3.723,3.211,5.123,2.412" transform="translate(-426.69 -713.088)" fill="#070606"/>
  </g>
  <g id="Group_25758" data-name="Group 25758" transform="translate(28.378 52.457)">
    <path id="Path_33382" data-name="Path 33382" d="M428.134,774.264a1.379,1.379,0,1,1-1.337-1.721,1.565,1.565,0,0,1,1.337,1.721" transform="translate(-425.461 -772.543)" fill="#616fb2"/>
  </g>
  <g id="Group_25759" data-name="Group 25759" transform="translate(28.818 46.773)">
    <path id="Path_33383" data-name="Path 33383" d="M429.52,730.567c.414.113.728.283.7.378s-.383.081-.8-.031-.728-.283-.7-.378.383-.081.8.032" transform="translate(-428.722 -730.472)" fill="#070606"/>
  </g>
  <g id="Group_25760" data-name="Group 25760" transform="translate(29.25 46.311)">
    <path id="Path_33384" data-name="Path 33384" d="M432.407,727.718c.15.4.2.756.1.791s-.289-.263-.439-.666-.2-.756-.1-.79.29.263.439.665" transform="translate(-431.92 -727.05)" fill="#070606"/>
  </g>
  <g id="Group_25761" data-name="Group 25761" transform="translate(58.852 62.423)">
    <path id="Path_33385" data-name="Path 33385" d="M653.853,859.547,651.814,857a3.467,3.467,0,0,1,.54-4.874l6.3-5.043a3.467,3.467,0,0,1,4.874.54l2.039,2.548a3.467,3.467,0,0,1-.54,4.874l-6.3,5.042a3.467,3.467,0,0,1-4.874-.54" transform="translate(-651.053 -846.322)" fill="#b2c1dd"/>
  </g>
  <g id="Group_25762" data-name="Group 25762" transform="translate(29.714 69.781)">
    <path id="Path_33386" data-name="Path 33386" d="M436.062,929.567h0a3.218,3.218,0,0,1,.5-4.523l29.418-23.551A3.218,3.218,0,0,1,470,906.517l-29.418,23.551a3.218,3.218,0,0,1-4.523-.5" transform="translate(-435.356 -900.787)" fill="#b2c1dd"/>
  </g>
  <g id="Group_25763" data-name="Group 25763" transform="translate(63.496 12.028)">
    <path id="Path_33387" data-name="Path 33387" d="M744.816,485.773a33.351,33.351,0,1,0-5.192,46.88,33.353,33.353,0,0,0,5.192-46.88m-50.539,40.46a31.388,31.388,0,1,1,44.12,4.886,31.388,31.388,0,0,1-44.12-4.886" transform="translate(-685.428 -473.264)" fill="#b2c1dd"/>
  </g>
  <g id="Group_25767" data-name="Group 25767" transform="translate(65.459 13.992)" opacity="0.8">
    <g id="Group_25766" data-name="Group 25766" transform="translate(0 0)">
      <g id="Group_25765" data-name="Group 25765" clip-path="url(#clip-path)">
        <g id="Group_25764" data-name="Group 25764" transform="translate(0 0)">
          <path id="Path_33388" data-name="Path 33388" d="M750.965,543.688a31.388,31.388,0,1,1,4.886-44.12,31.388,31.388,0,0,1-4.886,44.12" transform="translate(-699.959 -487.795)" fill="#fff"/>
        </g>
      </g>
    </g>
  </g>
  <g id="Group_25768" data-name="Group 25768" transform="translate(14.455 61.328)">
    <path id="Path_33389" data-name="Path 33389" d="M335.4,838.6h0a5.278,5.278,0,0,0-6.875,2.9L322.7,855.833a4.148,4.148,0,0,0,2.283,5.4l.024.01a4.148,4.148,0,0,0,5.139-1.747l7.814-13.342A5.278,5.278,0,0,0,335.4,838.6" transform="translate(-322.398 -838.211)" fill="#fcd040"/>
  </g>
  <g id="Group_25769" data-name="Group 25769" transform="translate(14.541 77.646)">
    <path id="Path_33390" data-name="Path 33390" d="M328.716,960.035l14.061,14.8-2.654,2.522-15.834-12.464a3.3,3.3,0,1,1,4.428-4.859" transform="translate(-323.031 -959.009)" fill="#616fb2"/>
  </g>
  <g id="Group_25770" data-name="Group 25770" transform="translate(31.574 93.448)">
    <path id="Path_33391" data-name="Path 33391" d="M451.8,1075.988s3.918,1.118,2.363,1.276-1.675.148-1.675.148,1.324,1.821,1.892,1.867-.269,2.646-2.624,1.419c-2.287-1.193-2.63-2.209-2.63-2.209a3.455,3.455,0,0,1,2.673-2.5" transform="translate(-449.124 -1075.988)" fill="#616fb2"/>
  </g>
  <g id="Group_25771" data-name="Group 25771" transform="translate(22.822 74.863)">
    <rect id="Rectangle_17871" data-name="Rectangle 17871" width="7.613" height="0.135" transform="translate(0 6.568) rotate(-59.629)" fill="#ff850b"/>
  </g>
  <g id="Group_25772" data-name="Group 25772" transform="translate(156.188 51.872)">
    <path id="Path_33392" data-name="Path 33392" d="M1409.426,838.457h-34.042a3.782,3.782,0,0,1-3.782-3.782V771.993a3.782,3.782,0,0,1,3.782-3.782h34.042a3.782,3.782,0,0,1,3.782,3.782v62.682a3.782,3.782,0,0,1-3.782,3.782" transform="translate(-1371.602 -768.211)" fill="#fff"/>
  </g>
  <g id="Group_25773" data-name="Group 25773" transform="translate(155.986 51.669)">
    <path id="Path_33393" data-name="Path 33393" d="M1408.129,837.362h-34.042a3.99,3.99,0,0,1-3.985-3.985V770.7a3.99,3.99,0,0,1,3.985-3.985h34.042a3.989,3.989,0,0,1,3.985,3.985v62.682A3.989,3.989,0,0,1,1408.129,837.362Zm-34.042-70.246a3.584,3.584,0,0,0-3.58,3.58v62.682a3.584,3.584,0,0,0,3.58,3.58h34.042a3.584,3.584,0,0,0,3.579-3.58V770.7a3.584,3.584,0,0,0-3.579-3.58Z" transform="translate(-1370.102 -766.711)" fill="#cddfed"/>
  </g>
  <g id="Group_25774" data-name="Group 25774" transform="translate(159.342 56.634)">
    <path id="Path_33394" data-name="Path 33394" d="M1405.551,808.769a5.3,5.3,0,1,1-5.3-5.3,5.3,5.3,0,0,1,5.3,5.3" transform="translate(-1394.951 -803.469)" fill="#f83252"/>
  </g>
  <g id="Group_25775" data-name="Group 25775" transform="translate(161.326 59.008)">
    <path id="Path_33395" data-name="Path 33395" d="M1412.508,826.774l-2.806-3.491a.311.311,0,0,1,.484-.389l2.287,2.844,3.179-4.566a.31.31,0,1,1,.51.355Z" transform="translate(-1409.633 -821.038)" fill="#fff"/>
  </g>
  <g id="Group_25776" data-name="Group 25776" transform="translate(159.342 72.647)">
    <path id="Path_33396" data-name="Path 33396" d="M1405.551,927.3a5.3,5.3,0,1,1-5.3-5.3,5.3,5.3,0,0,1,5.3,5.3" transform="translate(-1394.951 -922.004)" fill="#0b0147"/>
  </g>
  <g id="Group_25777" data-name="Group 25777" transform="translate(161.326 75.02)">
    <path id="Path_33397" data-name="Path 33397" d="M1412.508,945.308l-2.806-3.491a.31.31,0,1,1,.484-.389l2.287,2.844,3.179-4.566a.311.311,0,1,1,.51.355Z" transform="translate(-1409.633 -939.573)" fill="#fff"/>
  </g>
  <g id="Group_25778" data-name="Group 25778" transform="translate(159.342 88.659)">
    <path id="Path_33398" data-name="Path 33398" d="M1405.551,1045.837a5.3,5.3,0,1,1-5.3-5.3,5.3,5.3,0,0,1,5.3,5.3" transform="translate(-1394.951 -1040.537)" fill="#50b89b"/>
  </g>
  <g id="Group_25779" data-name="Group 25779" transform="translate(161.326 91.032)">
    <path id="Path_33399" data-name="Path 33399" d="M1412.508,1063.841l-2.806-3.491a.31.31,0,1,1,.484-.389l2.287,2.844,3.179-4.566a.311.311,0,0,1,.51.355Z" transform="translate(-1409.633 -1058.106)" fill="#fff"/>
  </g>
  <g id="Group_25780" data-name="Group 25780" transform="translate(159.342 104.671)">
    <path id="Path_33400" data-name="Path 33400" d="M1405.551,1164.37a5.3,5.3,0,1,1-5.3-5.3,5.3,5.3,0,0,1,5.3,5.3" transform="translate(-1394.951 -1159.07)" fill="#fcd040"/>
  </g>
  <g id="Group_25781" data-name="Group 25781" transform="translate(161.326 107.045)">
    <path id="Path_33401" data-name="Path 33401" d="M1412.508,1182.375l-2.806-3.491a.31.31,0,1,1,.484-.389l2.287,2.844,3.179-4.566a.311.311,0,0,1,.51.355Z" transform="translate(-1409.633 -1176.64)" fill="#fff"/>
  </g>
  <g id="Group_25782" data-name="Group 25782" transform="translate(172.804 61.394)">
    <path id="Path_33402" data-name="Path 33402" d="M1513.919,839.784h-18.777a.54.54,0,1,1,0-1.081h18.777a.54.54,0,1,1,0,1.081Z" transform="translate(-1494.602 -838.703)" fill="#cddfed"/>
  </g>
  <g id="Group_25783" data-name="Group 25783" transform="translate(172.804 77.406)">
    <path id="Path_33403" data-name="Path 33403" d="M1513.919,958.317h-18.777a.54.54,0,1,1,0-1.081h18.777a.54.54,0,1,1,0,1.081Z" transform="translate(-1494.602 -957.236)" fill="#cddfed"/>
  </g>
  <g id="Group_25784" data-name="Group 25784" transform="translate(172.804 93.419)">
    <path id="Path_33404" data-name="Path 33404" d="M1513.919,1076.852h-18.777a.54.54,0,1,1,0-1.081h18.777a.54.54,0,1,1,0,1.081Z" transform="translate(-1494.602 -1075.771)" fill="#cddfed"/>
  </g>
  <g id="Group_25785" data-name="Group 25785" transform="translate(172.804 109.431)">
    <path id="Path_33405" data-name="Path 33405" d="M1513.919,1195.386h-18.777a.54.54,0,1,1,0-1.081h18.777a.54.54,0,1,1,0,1.081Z" transform="translate(-1494.602 -1194.305)" fill="#cddfed"/>
  </g>
  <g id="Group_25786" data-name="Group 25786" transform="translate(167.935 29.678)">
    <path id="Path_33406" data-name="Path 33406" d="M1471.633,618.777h-11.28a1.79,1.79,0,0,1-1.79-1.79v-11.28a1.79,1.79,0,0,1,1.79-1.79h11.28a1.79,1.79,0,0,1,1.79,1.79v11.28a1.79,1.79,0,0,1-1.79,1.79" transform="translate(-1458.563 -603.918)" fill="#fcd040"/>
  </g>
  <g id="Group_25787" data-name="Group 25787" transform="translate(173.567 32.603)">
    <path id="Path_33407" data-name="Path 33407" d="M1503.4,631.874a3.152,3.152,0,1,1,2.229-.923,3.132,3.132,0,0,1-2.229.923m0-5.224a2.071,2.071,0,1,0,1.465.607,2.056,2.056,0,0,0-1.465-.607m1.847,3.918h0Z" transform="translate(-1500.25 -625.57)" fill="#fff"/>
  </g>
  <g id="Group_25788" data-name="Group 25788" transform="translate(170.861 37.061)">
    <path id="Path_33408" data-name="Path 33408" d="M1480.761,663.126a.54.54,0,0,1-.382-.922l3.471-3.471a.54.54,0,0,1,.764.764l-3.471,3.471a.538.538,0,0,1-.382.158" transform="translate(-1480.221 -658.575)" fill="#fff"/>
  </g>
</svg>
