<svg xmlns="http://www.w3.org/2000/svg" xmlns:xlink="http://www.w3.org/1999/xlink" width="469.717" height="469.717" viewBox="0 0 469.717 469.717">
  <defs>
    <clipPath id="clip-path">
      <rect id="Rectangle_17922" data-name="Rectangle 17922" width="332.14" height="332.14" rx="166.07" fill="none"/>
    </clipPath>
  </defs>
  <g id="Group_26331" data-name="Group 26331" transform="translate(218.84 -163.319) rotate(45)">
    <g id="Group_26298" data-name="Group 26298" transform="translate(126.811 104.158)">
      <g id="Group_26297" data-name="Group 26297" transform="translate(0 0)" clip-path="url(#clip-path)">
        <g id="Group_26296" data-name="Group 26296" transform="translate(-132.214 -90.921)">
          <rect id="Rectangle_17920" data-name="Rectangle 17920" width="597.388" height="591.078" transform="translate(0 0)" fill="#0095ff"/>
          <g id="Group_26289" data-name="Group 26289" transform="translate(0.001 273.668)" opacity="0.45">
            <path id="Path_34502" data-name="Path 34502" d="M454.777,336.562c-1.028,0-2.044.05-3.055.121a40.014,40.014,0,1,0-39.666,34.786c.244,0,.485-.015.729-.019A42.72,42.72,0,0,0,491.2,401.618V356.951A42.693,42.693,0,0,0,454.777,336.562Z" transform="translate(106.188 -170.752)" fill="#fff"/>
            <path id="Path_34503" data-name="Path 34503" d="M360.823,344.873l-103.8-.393A31.022,31.022,0,0,0,273.706,320.1a34.836,34.836,0,0,0,43.851-21.54,48.907,48.907,0,0,0,44.726,4.737,35.71,35.71,0,0,0,48.64,9.131,36.046,36.046,0,0,0,28.034,26.68,39.127,39.127,0,1,0,41.784-26.287,36.012,36.012,0,0,0-54.746-39.072,35.739,35.739,0,0,0-33.8-26.923A48.919,48.919,0,0,0,295.72,254a34.828,34.828,0,0,0-45.866,32.688,30.994,30.994,0,0,0-37.807,26.761,27.806,27.806,0,0,0-36.013,9.883,32.248,32.248,0,0,0-35,49.83l-4.544,2.161a32.257,32.257,0,0,0-62.47,11.126,41.247,41.247,0,0,0-29.478-23.514V526.2H622.734l-73.88-85.5Zm-134-1.43c.543.329,1.1.635,1.662.93l-1.852-.007C226.707,344.061,226.771,343.753,226.828,343.443ZM77.586,401.359c.275.531.561,1.056.863,1.571l-.816.387v0C77.633,402.659,77.615,402.008,77.586,401.359Z" transform="translate(-44.542 -208.789)" fill="#fff"/>
          </g>
          <path id="Path_34511" data-name="Path 34511" d="M639.624,423.708c-.139,0-.274.009-.413.01a40.012,40.012,0,0,0-47.284-44.986,51.473,51.473,0,0,0-74.033-44.165A53.375,53.375,0,0,0,451.543,316.1,49.588,49.588,0,0,0,384.5,284.339a48.925,48.925,0,0,0-86.353,1.465,48.921,48.921,0,0,0-69.273,29.764,36.246,36.246,0,0,0-61.168,22.575,44.438,44.438,0,0,0-5.431-.345A43.985,43.985,0,0,0,118.7,375.851a32.271,32.271,0,0,0-44.443,36.188,49.324,49.324,0,0,0-29.715-1.8v92.79H641.929V423.767C641.165,423.732,640.4,423.708,639.624,423.708Zm-535.25,13.942-2.212,1.706q-.414-1.008-.872-1.993C102.305,437.506,103.333,437.6,104.374,437.651Z" transform="translate(-44.541 88.054)" fill="#fff"/>
        </g>
        <path id="Path_34567" data-name="Path 34567" d="M211.277,182.662a2.387,2.387,0,0,1-.949-.949L196.495,156.42l-13.833,25.293a2.388,2.388,0,0,1-.949.949L156.42,196.495l25.293,13.833a2.387,2.387,0,0,1,.949.949l13.833,25.293,13.833-25.293a2.387,2.387,0,0,1,.949-.949l25.293-13.833Z" transform="translate(-211.945 185.569) rotate(-45)" fill="#fff"/>
        <path id="Path_34568" data-name="Path 34568" d="M331.865,394.258,328.3,387.74l-3.565,6.518a1.2,1.2,0,0,1-.478.478L317.74,398.3l6.518,3.565a1.2,1.2,0,0,1,.478.478l3.565,6.518,3.565-6.518a1.2,1.2,0,0,1,.478-.478l6.518-3.565-6.518-3.565A1.2,1.2,0,0,1,331.865,394.258Z" transform="translate(-256.528 169.957) rotate(-45)" fill="#fff"/>
        <path id="Path_34569" data-name="Path 34569" d="M415.294,139.62a2.268,2.268,0,0,1-.9-.9l-6.727-12.3-6.726,12.3a2.268,2.268,0,0,1-.9.9l-12.3,6.727,12.3,6.726a2.267,2.267,0,0,1,.9.9l6.726,12.3,6.726-12.3a2.268,2.268,0,0,1,.9-.9l12.3-6.726Z" transform="translate(-117.434 316.017) rotate(-45)" fill="#fff"/>
        <path id="Path_34570" data-name="Path 34570" d="M404.236,134.323a1.358,1.358,0,0,1-.54-.54l-4.027-7.363-4.027,7.363a1.358,1.358,0,0,1-.54.54l-7.363,4.027,7.363,4.027a1.357,1.357,0,0,1,.54.54l4.027,7.363,4.027-7.363a1.358,1.358,0,0,1,.54-.54l7.363-4.027Z" transform="translate(-290.68 241.989) rotate(-45)" fill="#fff"/>
      </g>
    </g>
    <g id="Group_26337" data-name="Group 26337" transform="translate(226.658 39.064)">
      <g id="Group_26336" data-name="Group 26336" transform="translate(0 212.867)">
        <g id="Group_26294" data-name="Group 26294" transform="translate(0 0)">
          <path id="Path_34504" data-name="Path 34504" d="M336.725,318.182H203.46c41.258-61.19,42.492-99.963,42.492-122.379h48.283C294.235,217.05,297.626,259.717,336.725,318.182Z" transform="translate(-203.46 -179.789)" fill="#d9ecf7"/>
          <g id="Group_26290" data-name="Group 26290" transform="translate(41.637 16.013)">
            <path id="Path_34505" data-name="Path 34505" d="M241.929,318.182h-9.956L238.989,195.8h9.956Z" transform="translate(-231.973 -195.803)" fill="#f5fbff"/>
            <path id="Path_34506" data-name="Path 34506" d="M261.6,318.182h9.956L264.543,195.8h-9.956Z" transform="translate(-221.566 -195.803)" fill="#f5fbff"/>
            <rect id="Rectangle_17921" data-name="Rectangle 17921" width="33.643" height="122.379" transform="translate(8.572)" fill="#f5fbff"/>
          </g>
          <g id="Group_26293" data-name="Group 26293" transform="translate(36.511)">
            <path id="Path_34507" data-name="Path 34507" d="M228.463,215.714c-.016-31.484,12.4-30.868,29.186-30.876s31.593-.64,31.609,30.845-31.55,83.171-31.55,83.171S228.479,247.2,228.463,215.714Z" transform="translate(-228.463 -184.837)" fill="#b34235"/>
            <path id="Path_34508" data-name="Path 34508" d="M235.759,211.9c-.012-23.253,7.479-22.8,17.611-22.8s19.065-.47,19.077,22.783-19.034,61.422-19.034,61.422S235.771,235.154,235.759,211.9Z" transform="translate(-225.105 -182.875)" fill="#ff7e0c"/>
            <g id="Group_26291" data-name="Group 26291" transform="translate(18.906 8.342)">
              <path id="Path_34509" data-name="Path 34509" d="M241.41,204.975c-.007-14.711,4.731-14.421,11.14-14.424s12.06-.3,12.068,14.413-12.04,38.856-12.04,38.856S241.417,219.684,241.41,204.975Z" transform="translate(-241.41 -190.549)" fill="#f9ff19"/>
            </g>
            <g id="Group_26292" data-name="Group 26292" transform="translate(21.847 11.055)">
              <path id="Path_34510" data-name="Path 34510" d="M243.424,202.383c-.006-10.174,3.271-9.974,7.7-9.975s8.341-.206,8.347,9.966-8.328,26.872-8.328,26.872S243.428,212.555,243.424,202.383Z" transform="translate(-243.424 -192.408)" fill="#fff"/>
            </g>
          </g>
        </g>
      </g>
      <g id="Group_26309" data-name="Group 26309" transform="translate(12.581)">
        <path id="Path_34512" data-name="Path 34512" d="M255.273,177.757c-1.792,6.371-9.192,17.378-17.094,27.913-10.631,14.157-22.152,27.456-22.152,27.456s-6.777-60.083-2.583-75a29.726,29.726,0,0,1,6.393-11.94v-.01l.218-.239c.117-.13.232-.261.356-.384,5.863-6.08,13.967-8.17,21.549-4.614C253.511,146.361,259.475,162.847,255.273,177.757Z" transform="translate(-212.075 7.025)" fill="#e84c3d"/>
        <path id="Path_34513" data-name="Path 34513" d="M296.309,233.086s-11.478-13.228-22.1-27.333c-7.938-10.558-15.4-21.607-17.2-27.992-4.208-14.911,1.735-31.4,13.278-36.838,7.887-3.715,16.347-1.305,22.253,5.347a29.863,29.863,0,0,1,6.278,11.812C303.028,172.993,296.309,233.086,296.309,233.086Z" transform="translate(-192.018 7.014)" fill="#e84c3d"/>
        <path id="Path_34514" data-name="Path 34514" d="M278.477,197.137l-43.463.022c-1.263,0-2.3-1.333-2.3-2.966l-.009-17.625c0-1.635,1.035-2.972,2.3-2.972l43.463-.022c1.265,0,2.3,1.335,2.3,2.969l.009,17.625C280.775,195.8,279.743,197.137,278.477,197.137Z" transform="translate(-202.581 22.846)" fill="#d64638"/>
        <path id="Path_34515" data-name="Path 34515" d="M280.04,176.543c0-1.634-1.037-2.97-2.3-2.969h-2.525c1.263,0,2.294,1.336,2.3,2.969l.009,17.625c0,1.633-1.032,2.969-2.3,2.969l-40.938.022h.006l43.463-.022c1.266,0,2.3-1.336,2.3-2.969Z" transform="translate(-201.856 22.846)" fill="#e84c3d"/>
        <path id="Path_34516" data-name="Path 34516" d="M263.159,197.137c1.266,0,2.3-1.336,2.3-2.969l-.009-17.625c0-1.633-1.034-2.964-2.3-2.969h-2.669c1.26.007,2.29,1.338,2.291,2.967l.009,17.625c0,1.633-1.032,2.969-2.3,2.969C262.67,197.137,262.489,197.138,263.159,197.137Z" transform="translate(-189.796 22.846)" fill="#e84c3d"/>
        <path id="Path_34517" data-name="Path 34517" d="M232.713,176.543c0-1.634,1.037-2.97,2.3-2.969h2.525c-1.263,0-2.294,1.336-2.3,2.969l-.009,17.625c0,1.633,1.032,2.969,2.3,2.969l40.938.022h-.006L235,197.137c-1.266,0-2.3-1.336-2.3-2.969Z" transform="translate(-202.582 22.846)" fill="#e84c3d"/>
        <path id="Path_34518" data-name="Path 34518" d="M292.536,146.271c-3.38,24.039-10.085,44.781-18.328,59.482-7.938-10.558-15.4-21.607-17.2-27.992-4.208-14.911,1.735-31.4,13.278-36.838C278.17,137.209,286.631,139.618,292.536,146.271Z" transform="translate(-192.018 7.014)" fill="#ceced4" style="mix-blend-mode: multiply;isolation: isolate"/>
        <path id="Path_34519" data-name="Path 34519" d="M252.827,177.757c-1.792,6.371-9.192,17.378-17.094,27.913-8.236-14.7-14.962-35.472-18.344-59.5l.218-.239c.117-.13.232-.261.356-.384,5.863-6.08,13.967-8.17,21.549-4.614C251.065,146.361,257.029,162.847,252.827,177.757Z" transform="translate(-209.629 7.025)" fill="#ceced4" style="mix-blend-mode: multiply;isolation: isolate"/>
        <g id="Group_26302" data-name="Group 26302" transform="translate(32.655 196.42)" opacity="0.5" style="mix-blend-mode: multiply;isolation: isolate">
          <path id="Path_34520" data-name="Path 34520" d="M236.736,197.137c-1.266,0-2.3-1.336-2.3-2.969l.009-17.625c0-1.633,1.034-2.964,2.3-2.969h2.669c-1.262.007-2.29,1.338-2.291,2.967l-.009,17.625c0,1.633,1.032,2.969,2.3,2.969C237.226,197.137,237.407,197.138,236.736,197.137Z" transform="translate(-234.438 -173.574)" fill="#e84c3d"/>
        </g>
        <path id="Path_34521" data-name="Path 34521" d="M312.34,156.331c.022,38.65-8.794,72.934-20.852,94.309h-1.269l-25.889.015-27.165.007c-12.073-21.36-20.925-55.637-20.947-94.28-.007-23.8,6.464-45.944,14.664-64.438a215.406,215.406,0,0,1,33.339-52.88s.3.327.857.965c.064.08.145.166.225.261a219.477,219.477,0,0,1,32.31,51.617C305.832,110.394,312.333,132.539,312.34,156.331Z" transform="translate(-210.168 -39.063)" fill="#ffc566"/>
        <g id="Group_26303" data-name="Group 26303" transform="translate(29.403 67.846)" style="mix-blend-mode: multiply;isolation: isolate">
          <path id="Path_34522" data-name="Path 34522" d="M283.013,110.91A25.4,25.4,0,1,1,257.6,85.525,25.4,25.4,0,0,1,283.013,110.91Z" transform="translate(-232.211 -85.525)" fill="#a0a0a4"/>
          <path id="Path_34523" data-name="Path 34523" d="M276.267,109.185a20.275,20.275,0,1,1-20.283-19.906A20.1,20.1,0,0,1,276.267,109.185Z" transform="translate(-230.595 -83.797)" fill="#a0a0a4"/>
        </g>
        <g id="Group_26304" data-name="Group 26304" transform="translate(28.678 67.12)">
          <path id="Path_34524" data-name="Path 34524" d="M282.516,110.413A25.4,25.4,0,1,1,257.1,85.028,25.4,25.4,0,0,1,282.516,110.413Z" transform="translate(-231.714 -85.028)" fill="#e84c3d"/>
          <path id="Path_34525" data-name="Path 34525" d="M275.77,108.688a20.275,20.275,0,1,1-20.283-19.906A20.095,20.095,0,0,1,275.77,108.688Z" transform="translate(-230.098 -83.3)" fill="#73a2bd"/>
        </g>
        <rect id="Rectangle_17923" data-name="Rectangle 17923" width="48.07" height="1.263" transform="translate(30.124 211.602)" fill="#ceced4" style="mix-blend-mode: multiply;isolation: isolate"/>
        <path id="Path_34526" data-name="Path 34526" d="M292.991,91.907a88.512,88.512,0,0,1-66.731.034A215.285,215.285,0,0,1,259.6,39.063,215.259,215.259,0,0,1,292.991,91.907Z" transform="translate(-205.547 -39.063)" fill="#e84c3d"/>
        <path id="Path_34527" data-name="Path 34527" d="M243.413,167.93c.009,15.87,8.417,69.349,8.417,69.349s8.353-53.487,8.344-69.357-3.769-28.735-8.395-28.732S243.406,152.057,243.413,167.93Z" transform="translate(-197.652 7.02)" fill="#e84c3d"/>
        <g id="Group_26305" data-name="Group 26305" transform="translate(6.051 0.797)" opacity="0.81" style="mix-blend-mode: screen;isolation: isolate">
          <path id="Path_34528" data-name="Path 34528" d="M223.681,159.69c-.012-26.651,6.463-51.456,14.661-72.174a258.669,258.669,0,0,1,25.172-47.906,218.458,218.458,0,0,0-32.632,52.08c-8.2,18.5-14.674,40.646-14.662,64.442.02,38.645,8.872,72.92,20.946,94.282h1.065C229.551,226.836,223.7,194.88,223.681,159.69Z" transform="translate(-216.219 -39.609)" fill="#ffc566"/>
        </g>
        <g id="Group_26306" data-name="Group 26306" transform="translate(13.513)" opacity="0.51" style="mix-blend-mode: screen;isolation: isolate">
          <path id="Path_34529" data-name="Path 34529" d="M261.162,39.86c-23.38,34.916-39.852,78.1-39.833,120.081.016,35.191,5.87,67.147,14.549,90.724l5.755,0c-6.314-25.205-10.339-56.352-10.352-90.078-.016-41.892,12.178-84.289,30.588-121.521Z" transform="translate(-221.329 -39.063)" fill="#ffc566"/>
        </g>
        <g id="Group_26307" data-name="Group 26307" transform="translate(54.052)" opacity="0.51" style="mix-blend-mode: multiply;isolation: isolate">
          <path id="Path_34530" data-name="Path 34530" d="M249.8,39.86c23.38,34.916,39.852,78.1,39.833,120.081-.016,35.191-5.87,67.147-14.548,90.724l-5.755,0c6.313-25.205,10.337-56.352,10.35-90.078.018-41.892-12.177-84.289-30.588-121.521Z" transform="translate(-249.091 -39.063)" fill="#ffc566"/>
        </g>
        <g id="Group_26308" data-name="Group 26308" transform="translate(54.756 0.8)" style="mix-blend-mode: multiply;isolation: isolate">
          <path id="Path_34531" data-name="Path 34531" d="M296.989,156.079c.022,38.65-8.794,72.934-20.852,94.309h-1.269c8.67-23.573,14.525-55.513,14.54-90.7.015-26.65-6.465-51.449-14.657-72.171a258.437,258.437,0,0,0-25.178-47.9c.044.05.095.108.153.166.064.08.145.166.225.261a219.477,219.477,0,0,1,32.309,51.617C290.48,110.143,296.981,132.287,296.989,156.079Z" transform="translate(-249.573 -39.611)" fill="#ffc566"/>
        </g>
        <circle id="Ellipse_3787" data-name="Ellipse 3787" cx="17.092" cy="17.092" r="17.092" transform="translate(28.323 90.934) rotate(-45)" fill="#94c6e0"/>
        <circle id="Ellipse_3788" data-name="Ellipse 3788" cx="10.871" cy="10.871" r="10.871" transform="translate(37.315 76.333)" fill="#b2e4ff"/>
      </g>
    </g>
  </g>
</svg>
