<svg xmlns="http://www.w3.org/2000/svg" width="135.89" height="44" viewBox="0 0 135.89 44">
  <g id="Logo" transform="translate(-120 -20)">
    <g id="Group_26200" data-name="Group 26200" transform="translate(19225.584 12402.379)">
      <path id="Path_34373" data-name="Path 34373" d="M73.472,18.479H69.478V32.6c0,.944,0,1.616.054,2.269.091,1.779,1.216,2.524,3.123,2.524.89,0,1.616-.054,2.378-.127V34.546c-1.18.054-1.471-.163-1.543-.763-.018-.363-.018-.672-.018-1.253Z" transform="translate(-19112.91 -12400.857)" fill="#051534"/>
      <path id="Path_34372" data-name="Path 34372" d="M49.869,18.479H45.893V25.4L45,23.962a7,7,0,0,0-3.159-.708c-3.486,0-6.463,2.542-6.463,7.408,0,4.012,2.269,6.863,6.01,6.863a6.152,6.152,0,0,0,3.486-.89l1.017-1.507v2.033h3.976ZM42.662,34.764c-1.888,0-3.177-1.67-3.177-4.339,0-2.941,1.362-4.43,3.3-4.43,1.489,0,3.1,1.017,3.1,3.922v.635C45.893,33.657,44.459,34.764,42.662,34.764Z" transform="translate(-19112.539 -12400.73)" fill="#051534"/>
      <path id="Path_34377" data-name="Path 34377" d="M49.869,18.479H45.893V25.4L45,23.962a7,7,0,0,0-3.159-.708c-3.486,0-6.463,2.542-6.463,7.408,0,4.012,2.269,6.863,6.01,6.863a6.152,6.152,0,0,0,3.486-.89l1.017-1.507v2.033h3.976ZM42.662,34.764c-1.888,0-3.177-1.67-3.177-4.339,0-2.941,1.362-4.43,3.3-4.43,1.489,0,3.1,1.017,3.1,3.922v.635C45.893,33.657,44.459,34.764,42.662,34.764Z" transform="translate(-19095.676 -12400.73)" fill="#051534"/>
      <path id="Path_34378" data-name="Path 34378" d="M89.7,30.153c0-3.613-2.233-6.9-6.554-6.9-4.3,0-7.008,3.1-7.008,7.172,0,4.775,2.959,7.1,6.754,7.1,3.3,0,5.846-1.652,6.591-4.793h-3.94a2.413,2.413,0,0,1-2.578,2.033c-1.489,0-2.614-.763-2.85-3.341H89.63A11.64,11.64,0,0,0,89.7,30.153ZM82.967,26c1.471,0,2.36,1,2.6,2.9H80.226C80.553,26.885,81.551,26,82.967,26Z" transform="translate(-19111.643 -12400.731)" fill="#051534"/>
      <path id="Path_34370" data-name="Path 34370" d="M143.389,26.994c-.309-2.36-1.961-3.74-4.811-3.74a5.24,5.24,0,0,0-3.141.871l-1.126,1.616V23.617h-3.994V37.161h3.994V30.879c0-3.45,1.18-4.884,2.742-4.884a2.182,2.182,0,0,1,2.415,2.251c.054.672.054,1.362.054,1.87v7.044h3.994V29.517A16.181,16.181,0,0,0,143.389,26.994Z" transform="translate(-19113.211 -12400.55)" fill="#051534"/>
      <path id="Path_34369" data-name="Path 34369" d="M31.187,18.37a2.026,2.026,0,1,0,0,4.049,2.028,2.028,0,1,0,0-4.049ZM33.2,37.161V23.617H29.208V37.161Z" transform="translate(-19112.863 -12400.622)" fill="#051534"/>
      <path id="Path_34374" data-name="Path 34374" d="M26.194,19.622h-6.1l-3.54,13.744-3.54-13.744H6.768V37.161h3.994V29.39c0-1.707,0-3.994-.054-5.81.327,1.816.908,4.1,1.4,5.774l2.269,7.807h4.212L20.8,29.354c.508-1.67,1.089-3.994,1.452-5.792-.054,1.8-.054,4.121-.054,5.828v7.771h3.994Z" transform="translate(-19112.352 -12400.622)" fill="#051534"/>
      <path id="Path_34379" data-name="Path 34379" d="M26.194,19.622h-6.1l-3.54,13.744-3.54-13.744H6.768V37.161h3.994V29.39c0-1.707,0-3.994-.054-5.81.327,1.816.908,4.1,1.4,5.774l2.269,7.807h4.212L20.8,29.354c.508-1.67,1.089-3.994,1.452-5.792-.054,1.8-.054,4.121-.054,5.828v7.771h3.994Z" transform="translate(-19026.332 -12400.622)" fill="#051534"/>
      <path id="Path_34380" data-name="Path 34380" d="M123.672,37.161h3.885a23.954,23.954,0,0,1-.254-3.431V29.608c0-.781-.036-1.543-.073-2.179-.218-2.415-1.652-4.176-5.683-4.176-3.3,0-5.919,1.761-5.991,4.866h3.813c.109-1.362.781-2.124,2.033-2.124a1.688,1.688,0,0,1,1.888,1.489c.036.454.036.8.036,1.162v.236h-.853c-4.775,0-7.408,1.725-7.408,4.666,0,2.578,2.07,3.976,4.357,3.976a6.365,6.365,0,0,0,3.359-.89l.6-1.452ZM121,34.764c-1.107,0-1.834-.527-1.834-1.543,0-1.58,1.707-2.179,4.158-1.979v.98A2.331,2.331,0,0,1,121,34.764Z" transform="translate(-19112.828 -12400.731)" fill="#051534"/>
    </g>
    <g id="Group_26527" data-name="Group 26527" transform="translate(120 46.305)">
      <path id="Path_32639" data-name="Path 32639" d="M25.274,22.846v17.7H23.991V27.346l.153-3.217h-.019L17.672,40.541H16.427L9.973,24.129H9.935l.172,3.217V40.541H8.824v-17.7h2.011l5.324,13.405.881,2.7h.038l.862-2.681,5.324-13.424Z" transform="translate(-8.824 -22.846)" fill="#051534"/>
      <path id="Path_35161" data-name="Path 35161" d="M127.768,40.541l-2.221-5.554h-8.484l-2.183,5.554h-1.436l7.086-17.7h1.589l7.067,17.7ZM117.58,33.762h7.488l-3.083-7.718-.651-1.877h-.019l-.651,1.819Z" transform="translate(-66.865 -22.846)" fill="#051534"/>
      <path id="Path_35162" data-name="Path 35162" d="M217.167,22.846v17.7h-1.341v-17.7Z" transform="translate(-123.304 -22.846)" fill="#051534"/>
      <path id="Path_35163" data-name="Path 35163" d="M281.353,39.315h10.609v1.226h-11.95v-17.7h1.341Z" transform="translate(-156.12 -22.846)" fill="#051534"/>
    </g>
  </g>
</svg>
