<svg xmlns="http://www.w3.org/2000/svg" width="87.896" height="84.06" viewBox="0 0 87.896 84.06">
  <g id="scribble" transform="translate(-1.431 33.695) rotate(-30)">
    <g id="Group_26493" data-name="Group 26493" transform="translate(0 0)">
      <path id="Path_35152" data-name="Path 35152" d="M2.147,11.192c9.83-12.384,29.108-9.32,33.576,6.128a16.418,16.418,0,0,1,.511,2.426c-10.341,2.3-20.426,9.83-21.32,18.895-.766,8.171,7.532,10.6,13.022,6,6.511-5.49,11.107-13.533,11.49-22.086,6.639-.894,13.15.894,16.724,7.4,6,10.979-2.043,25.788-12.767,30.129-1.149.383-.638,2.17.511,1.787C58.7,57.662,66.362,36.98,56.277,24.725,52.319,20,45.936,18.469,39.3,19.235,38.4,10.554,31.637,3.66,23.595.979,14.275-2.085,5.722,2.383.232,9.66-.662,10.809,1.253,12.213,2.147,11.192Zm28.6,25.788c-2.043,2.809-4.724,6-8.171,7.149-3.319,1.149-4.468-3.447-4.6-5.49C17.85,36.087,19.637,33.789,21.3,32a31.351,31.351,0,0,1,15.064-8.936C35.978,28.044,33.552,32.9,30.744,36.98Z" transform="translate(6.534 0)" fill="#0095ff"/>
      <path id="Path_35153" data-name="Path 35153" d="M1.532,13.054A43.147,43.147,0,0,0,12.256,11.9c1.4-.383.766-2.3-.639-2.043a38.377,38.377,0,0,1-8.554.255c.128-1.659.255-3.447.511-5.106C3.83,3.734,4.723,1.819,3.957.543A1.215,1.215,0,0,0,2.3.16C.766.8.766,3.479.51,4.883A40.261,40.261,0,0,0,0,11.65,1.533,1.533,0,0,0,1.532,13.054Z" transform="translate(0 2.862)" fill="#0095ff"/>
    </g>
  </g>
</svg>
